SplineFontDB: 1.0
FontName: CBM
FullName: CBM
FamilyName: CBM
Weight: Medium
Copyright: Created by Christian Vogelgsang with FontForge 1.0 (http://fontforge.sf.net)
Comments: 2007-1-1: Created.
Version: 001.000
ItalicAngle: 0
UnderlinePosition: 0
UnderlineWidth: 204
Ascent: 1638
Descent: 410
XUID: [1021 5 1719676404 3562005]
OS2Version: 0
OS2_WeightWidthSlopeOnly: 0
OS2_UseTypoMetrics: 1
CreationTime: 1167670113
ModificationTime: 1167670332
OS2TypoAscent: 0
OS2TypoAOffset: 1
OS2TypoDescent: 0
OS2TypoDOffset: 1
OS2TypoLinegap: 0
OS2WinAscent: 0
OS2WinAOffset: 1
OS2WinDescent: 0
OS2WinDOffset: 1
HheadAscent: 0
HheadAOffset: 1
HheadDescent: 0
HheadDOffset: 1
OS2Vendor: 'PfEd'
ScriptLang: 1
 1 latn 1 dflt 
LangName: 1033 
Encoding: UnicodeBmp
UnicodeInterp: none
NameList: Adobe Glyph List
DisplaySize: -24
AntiAlias: 1
FitToEm: 1
WinInfo: 0 32 8
BeginChars: 65536 192
StartChar: exclam
Encoding: 33 33 1
Width: 2048
VWidth: 2619
Flags: W
TeX: 0 0 0 0
HStem: 255 257<514 1026> 2026 20G<512 1024>
VStem: 512 512<255 512 766 2046>
Fore
512 2046 m 1
 1024 2046 l 1
 1024 766 l 1
 512 766 l 1
 512 2046 l 1
514 512 m 1
 1026 512 l 1
 1026 255 l 1
 514 255 l 1
 514 512 l 1
EndSplineSet
EndChar
StartChar: quotedbl
Encoding: 34 34 2
Width: 2048
VWidth: 2619
Flags: W
TeX: 0 0 0 0
HStem: 1536 512<255 769 1279 1793>
Fore
1279 2048 m 1
 1793 2048 l 1
 1793 1536 l 1
 1279 1536 l 1
 1279 2048 l 1
255 2048 m 1
 769 2048 l 1
 769 1536 l 1
 255 1536 l 1
 255 2048 l 1
EndSplineSet
EndChar
StartChar: numbersign
Encoding: 35 35 3
Width: 2048
VWidth: 2619
Flags: W
TeX: 0 0 0 0
HStem: 255 21G<255 769 1279 1793> 769 255<0 255 769 1279 1793 2048> 1279 257<0 255 769 1279 1793 2048> 2028 20G<255 769 1279 1793>
VStem: 255 514<255 769 1024 1279 1536 2048> 1279 514<255 769 1024 1279 1536 2048>
Fore
0 1024 m 1
 255 1024 l 1
 255 1279 l 1
 0 1279 l 1
 0 1536 l 1
 255 1536 l 1
 255 2048 l 1
 769 2048 l 1
 769 1536 l 1
 1279 1536 l 1
 1279 2048 l 1
 1793 2048 l 1
 1793 1536 l 1
 2048 1536 l 1
 2048 1279 l 1
 1793 1279 l 1
 1793 1024 l 1
 2048 1024 l 1
 2048 769 l 1
 1793 769 l 1
 1793 255 l 1
 1279 255 l 1
 1279 769 l 1
 769 769 l 1
 769 255 l 1
 255 255 l 1
 255 769 l 1
 0 769 l 1
 0 1024 l 1
769 1279 m 1
 769 1024 l 1
 1279 1024 l 1
 1279 1279 l 1
 769 1279 l 1
EndSplineSet
EndChar
StartChar: dollar
Encoding: 36 36 4
Width: 2048
VWidth: 2619
Flags: W
TeX: 0 0 0 0
HStem: 255 21G<512 1024> 506 263<0 512> 769 255<1279 1536> 1024 255<512 1024> 1279 257<0 255> 1536 257<1024 1536> 1536 512<512 1024>
VStem: 512 512<255 506 1793 2048>
Fore
0 769 m 1xf9
 1024 769 l 1
 1024 1024 l 1
 255 1024 l 1
 255 1279 l 1
 0 1279 l 1
 0 1536 l 1
 255 1536 l 1
 255 1793 l 1xf9
 512 1793 l 1xf9
 512 2048 l 1xf9
 1024 2048 l 1xf9
 1024 1793 l 1xf9
 1536 1793 l 1xf9
 1536 1536 l 1
 512 1536 l 1
 512 1279 l 1
 1279 1279 l 1
 1279 1024 l 1
 1536 1024 l 1
 1536 769 l 1
 1279 769 l 1
 1279 512 l 1
 1024 512 l 1
 1024 255 l 1
 512 255 l 1
 512 506 l 1
 0 506 l 1
 0 769 l 1xf9
EndSplineSet
EndChar
StartChar: percent
Encoding: 37 37 5
Width: 2048
VWidth: 2619
Flags: W
TeX: 0 0 0 0
HStem: 255 517<0 255 1024 1536> 1264 20G<512 769> 1540 512<0 512 1279 1536>
VStem: 0 255<260 516> 0 512<516 772 1536 2048> 1024 512<255 769 1540 1796> 1279 257<1796 2052>
Fore
0 772 m 1xe8
 255 772 l 1
 255 1028 l 1xf0
 512 1028 l 1
 512 1284 l 1
 769 1284 l 1
 769 1540 l 1
 1024 1540 l 1
 1024 1796 l 1xec
 1279 1796 l 1
 1279 2052 l 1
 1536 2052 l 1xe2
 1536 1540 l 1xe4
 1279 1540 l 1
 1279 1284 l 1xe2
 1024 1284 l 1
 1024 1028 l 1
 769 1028 l 1
 769 772 l 1
 512 772 l 1
 512 516 l 1xec
 255 516 l 1
 255 260 l 1xf0
 0 255 l 1
 0 772 l 1xe8
0 2048 m 1xe8
 512 2048 l 1
 512 1536 l 1
 0 1536 l 1
 0 2048 l 1xe8
1024 769 m 1xe4
 1536 769 l 1
 1536 255 l 1
 1024 255 l 1
 1024 769 l 1xe4
EndSplineSet
EndChar
StartChar: ampersand
Encoding: 38 38 6
Width: 2048
VWidth: 2619
Flags: W
TeX: 0 0 0 0
HStem: 255 257<512 1024 1536 1793> 769 255<1536 1793> 1024 512<512 1024> 1536 257<0 255 1279 1536> 1793 255<512 1024>
VStem: 0 512<512 1024 1536 1793> 1024 512<512 769 1536 1793>
Fore
0 1024 m 1
 255 1024 l 1
 255 1536 l 1
 0 1536 l 1
 0 1793 l 1
 255 1793 l 1
 255 2048 l 1
 1279 2048 l 1
 1279 1793 l 1
 1536 1793 l 1
 1536 1536 l 1
 1279 1536 l 1
 1279 1279 l 1
 1024 1279 l 1
 1024 1024 l 1
 1793 1024 l 1
 1793 769 l 1
 1536 769 l 1
 1536 512 l 1
 1793 512 l 1
 1793 255 l 1
 255 255 l 1
 255 512 l 1
 0 512 l 1
 0 1024 l 1
1024 1793 m 1
 512 1793 l 1
 512 1536 l 1
 1024 1536 l 1
 1024 1793 l 1
512 1024 m 1
 512 512 l 1
 1024 512 l 1
 1024 1024 l 1
 512 1024 l 1
EndSplineSet
EndChar
StartChar: quotesingle
Encoding: 39 39 7
Width: 2048
VWidth: 2619
Flags: W
TeX: 0 0 0 0
HStem: 1279 257<769 1024> 1793 255<1536 1793>
Fore
1793 2048 m 1
 1793 1793 l 1
 1536 1793 l 1
 1536 1536 l 1
 1279 1536 l 1
 1279 1279 l 1
 769 1279 l 1
 769 1536 l 1
 1024 1536 l 1
 1024 1793 l 1
 1279 1793 l 1
 1279 2048 l 1
 1793 2048 l 1
EndSplineSet
EndChar
StartChar: parenleft
Encoding: 40 40 8
Width: 2048
VWidth: 2619
Flags: W
TeX: 0 0 0 0
HStem: 255 257<1024 1279> 1516 20G<769 1024> 1793 255<1024 1279>
VStem: 255 514<769 1536> 512 512<512 769 1536 1793> 769 510<255 512 1793 2048>
Fore
769 1536 m 1xf0
 1024 1536 l 1
 1024 1793 l 1xe8
 1279 1793 l 1
 1279 2048 l 1
 769 2048 l 1
 769 1793 l 1xe4
 512 1793 l 1
 512 1536 l 1xe8
 255 1536 l 1
 255 769 l 1xf0
 512 769 l 1
 512 512 l 1xe8
 769 512 l 1
 769 255 l 1
 1279 255 l 1
 1279 512 l 1xe4
 1024 512 l 1
 1024 769 l 1xe8
 769 769 l 1
 769 1536 l 1xf0
EndSplineSet
EndChar
StartChar: parenright
Encoding: 41 41 9
Width: 2048
VWidth: 2619
Flags: W
TeX: 0 0 0 0
HStem: 255 257<255 512> 1516 20G<512 769> 1793 255<255 512>
VStem: 512 512<512 769 1536 1793> 769 510<769 1536>
Fore
769 1536 m 1xe8
 512 1536 l 1
 512 1793 l 1xf0
 255 1793 l 1
 255 2048 l 1
 769 2048 l 1
 769 1793 l 1xe8
 1024 1793 l 1
 1024 1536 l 1xf0
 1279 1536 l 1
 1279 769 l 1xe8
 1024 769 l 1
 1024 512 l 1xf0
 769 512 l 1
 769 255 l 1xe8
 255 255 l 1
 255 512 l 1
 512 512 l 1
 512 769 l 1xf0
 769 769 l 1
 769 1536 l 1xe8
EndSplineSet
EndChar
StartChar: asterisk
Encoding: 42 42 10
Width: 2048
VWidth: 2619
Flags: W
TeX: 0 0 0 0
HStem: 512 257<258 512 1536 1793> 1024 255<0 512 1536 2048> 1536 257<255 512 1536 1793>
VStem: 255 514<512 769 1536 1793> 1279 514<512 769 1536 1793>
Fore
0 1279 m 1
 512 1279 l 1
 512 1536 l 1
 255 1536 l 1
 255 1793 l 1
 769 1793 l 1
 769 1536 l 1
 1279 1536 l 1
 1279 1793 l 1
 1793 1793 l 1
 1793 1536 l 1
 1536 1536 l 1
 1536 1279 l 1
 2048 1279 l 1
 2048 1024 l 1
 1536 1024 l 1
 1536 769 l 1
 1793 769 l 1
 1793 512 l 1
 1279 512 l 1
 1279 769 l 1
 769 769 l 1
 769 512 l 1
 258 512 l 1
 258 769 l 1
 512 769 l 1
 512 1024 l 1
 0 1024 l 1
 0 1279 l 1
EndSplineSet
EndChar
StartChar: plus
Encoding: 43 43 11
Width: 2048
VWidth: 2619
Flags: W
TeX: 0 0 0 0
HStem: 1024 255<255 769 1279 1793> 1773 20G<769 1279>
VStem: 769 510<512 1024 1279 1793>
Fore
255 1279 m 1
 769 1279 l 1
 769 1793 l 1
 1279 1793 l 1
 1279 1279 l 1
 1793 1279 l 1
 1793 1024 l 1
 1279 1024 l 1
 1279 512 l 1
 769 512 l 1
 769 1024 l 1
 255 1024 l 1
 255 1279 l 1
EndSplineSet
EndChar
StartChar: comma
Encoding: 44 44 12
Width: 2048
VWidth: 2619
Flags: W
TeX: 0 0 0 0
HStem: 0 21G<0 512> 235 20G<0 255> 255 21G<512 769>
VStem: 255 514<255 769>
Fore
255 769 m 1
 769 769 l 1
 769 255 l 1
 512 255 l 1
 512 0 l 1
 0 0 l 1
 0 255 l 1
 255 255 l 1
 255 769 l 1
EndSplineSet
EndChar
StartChar: hyphen
Encoding: 45 45 13
Width: 2048
VWidth: 2619
Flags: W
TeX: 0 0 0 0
HStem: 1024 255<255 1793>
Fore
255 1279 m 1
 1793 1279 l 1
 1793 1024 l 1
 255 1024 l 1
 255 1279 l 1
EndSplineSet
EndChar
StartChar: period
Encoding: 46 46 14
Width: 2048
VWidth: 2619
Flags: W
TeX: 0 0 0 0
HStem: 255 21G<769 1279>
VStem: 769 510<255 769>
Fore
769 769 m 1
 1279 769 l 1
 1279 255 l 1
 769 255 l 1
 769 769 l 1
EndSplineSet
EndChar
StartChar: slash
Encoding: 47 47 15
Width: 2048
VWidth: 2619
Flags: W
TeX: 0 0 0 0
HStem: 254 256<255 512> 1258 20G<1024 1279> 1534 256<1793 2048>
Fore
255 510 m 1
 512 510 l 1
 512 766 l 1
 769 766 l 1
 769 1022 l 1
 1024 1022 l 1
 1024 1278 l 1
 1279 1278 l 1
 1279 1534 l 1
 1536 1534 l 1
 1536 1790 l 1
 2048 1790 l 1
 2048 1534 l 1
 1793 1534 l 1
 1793 1278 l 1
 1536 1278 l 1
 1536 1022 l 1
 1279 1022 l 1
 1279 766 l 1
 1024 766 l 1
 1024 510 l 1
 769 510 l 1
 769 254 l 1
 255 254 l 1
 255 510 l 1
EndSplineSet
EndChar
StartChar: zero
Encoding: 48 48 16
Width: 2048
VWidth: 2619
Flags: W
TeX: 0 0 0 0
HStem: 255 257<512 1024> 1024 255<512 769> 1279 257<769 1024> 1793 255<512 1024>
VStem: 0 512<512 1024 1279 1793> 1024 512<512 1279 1536 1793>
Fore
0 1793 m 1
 255 1793 l 1
 255 2048 l 1
 1279 2048 l 1
 1279 1793 l 1
 1536 1793 l 1
 1536 512 l 1
 1279 512 l 1
 1279 255 l 1
 255 255 l 1
 255 512 l 1
 0 512 l 1
 0 1793 l 1
512 1024 m 1
 512 512 l 1
 1024 512 l 1
 1024 1279 l 1
 769 1279 l 1
 769 1536 l 1
 1024 1536 l 1
 1024 1793 l 1
 512 1793 l 1
 512 1279 l 1
 769 1279 l 1
 769 1024 l 1
 512 1024 l 1
EndSplineSet
EndChar
StartChar: one
Encoding: 49 49 17
Width: 2048
VWidth: 2619
Flags: W
TeX: 0 0 0 0
HStem: 255 257<0 512 1024 1536> 1279 257<255 512> 2028 20G<512 1024>
VStem: 512 512<512 1279 1536 2048>
Fore
512 1279 m 1
 255 1279 l 1
 255 1536 l 1
 512 1536 l 1
 512 2048 l 1
 1024 2048 l 1
 1024 512 l 1
 1536 512 l 1
 1536 255 l 1
 0 252 l 1
 0 512 l 1
 512 512 l 1
 512 1279 l 1
EndSplineSet
EndChar
StartChar: two
Encoding: 50 50 18
Width: 2048
VWidth: 2619
Flags: W
TeX: 0 0 0 0
HStem: 255 257<512 1536> 769 255<512 769> 1024 255<769 1024> 1536 257<0 255> 1793 255<512 1024>
VStem: 0 512<512 769 1536 1793> 1024 512<1279 1793>
Fore
1279 2048 m 1
 1279 1793 l 1
 1536 1793 l 1
 1536 1279 l 1
 1279 1279 l 1
 1279 1024 l 1
 769 1024 l 1
 769 1279 l 1
 1024 1279 l 1
 1024 1793 l 1
 512 1793 l 1
 512 1536 l 1
 0 1536 l 1
 0 1793 l 1
 255 1793 l 1
 255 2048 l 1
 1279 2048 l 1
769 1024 m 1
 769 769 l 1
 512 769 l 1
 512 512 l 1
 1536 512 l 1
 1536 255 l 1
 0 255 l 1
 0 769 l 1
 255 769 l 1
 255 1024 l 1
 769 1024 l 1
EndSplineSet
EndChar
StartChar: three
Encoding: 51 51 19
Width: 2048
VWidth: 2619
Flags: W
TeX: 0 0 0 0
HStem: 255 257<512 1024> 512 257<0 255> 1024 255<512 1024> 1536 257<0 255> 1793 255<512 1024>
VStem: 0 512<512 769 1536 1793> 1024 512<512 1024 1279 1793>
Fore
0 769 m 1
 512 769 l 1
 512 512 l 1
 1024 512 l 1
 1024 1024 l 1
 512 1024 l 1
 512 1279 l 1
 1024 1279 l 1
 1024 1793 l 1
 512 1793 l 1
 512 1536 l 1
 0 1536 l 1
 0 1793 l 1
 255 1793 l 1
 255 2048 l 1
 1279 2048 l 1
 1279 1793 l 1
 1536 1793 l 1
 1536 1279 l 1
 1279 1279 l 1
 1279 1024 l 1
 1536 1024 l 1
 1536 512 l 1
 1279 512 l 1
 1279 255 l 1
 255 255 l 1
 255 512 l 1
 0 512 l 1
 0 769 l 1
EndSplineSet
EndChar
StartChar: four
Encoding: 52 52 20
Width: 2048
VWidth: 2619
Flags: W
TeX: 0 0 0 0
HStem: 255 21G<1024 1536> 769 255<512 1024 1536 1793> 769 510<0 512> 1279 257<512 769> 1773 20G<769 1024> 2028 20G<1024 1536>
VStem: 1024 512<255 769 1024 1279 1793 2048>
Fore
0 1279 m 1xbe
 512 1279 l 1xbe
 512 1536 l 1
 769 1536 l 1
 769 1793 l 1
 1024 1793 l 1
 1024 2048 l 1
 1536 2048 l 1
 1536 1024 l 1
 1793 1024 l 1
 1793 769 l 1
 1536 769 l 1
 1536 255 l 1
 1024 255 l 1
 1024 769 l 1xde
 0 769 l 1
 0 1279 l 1xbe
512 1024 m 1xde
 1024 1024 l 1xde
 1024 1279 l 1
 512 1279 l 1xbe
 512 1024 l 1xde
EndSplineSet
EndChar
StartChar: five
Encoding: 53 53 21
Width: 2048
VWidth: 2619
Flags: W
TeX: 0 0 0 0
HStem: 255 257<512 1024> 512 257<0 255> 1279 257<512 1024> 1793 255<512 1536>
VStem: 0 512<512 769 1536 1793> 1024 512<512 1279>
Fore
0 769 m 1
 512 769 l 1
 512 512 l 1
 1024 512 l 1
 1024 1279 l 1
 0 1279 l 1
 0 2048 l 1
 1536 2048 l 1
 1536 1793 l 1
 512 1793 l 1
 512 1536 l 1
 1279 1536 l 1
 1279 1279 l 1
 1536 1279 l 1
 1536 512 l 1
 1279 512 l 1
 1279 255 l 1
 255 255 l 1
 255 512 l 1
 0 512 l 1
 0 769 l 1
EndSplineSet
EndChar
StartChar: six
Encoding: 54 54 22
Width: 2048
VWidth: 2619
Flags: W
TeX: 0 0 0 0
HStem: 255 257<512 1024> 1024 255<512 1024> 1536 257<1279 1536> 1793 255<512 1024>
VStem: 0 512<512 1024 1279 1793> 1024 512<512 1024 1536 1793>
Fore
0 1793 m 1
 255 1793 l 1
 255 2048 l 1
 1279 2048 l 1
 1279 1793 l 1
 1536 1793 l 1
 1536 1536 l 1
 1024 1536 l 1
 1024 1793 l 1
 512 1793 l 1
 512 1279 l 1
 1279 1279 l 1
 1279 1024 l 1
 1536 1024 l 1
 1536 512 l 1
 1279 512 l 1
 1279 255 l 1
 255 255 l 1
 255 512 l 1
 0 512 l 1
 0 1793 l 1
512 1024 m 1
 512 512 l 1
 1024 512 l 1
 1024 1024 l 1
 512 1024 l 1
EndSplineSet
EndChar
StartChar: seven
Encoding: 55 55 23
Width: 2048
VWidth: 2619
Flags: W
TeX: 0 0 0 0
HStem: 255 21G<512 1024> 1259 20G<512 769> 1279 21G<1024 1279> 1536 512<0 512 1279 1536> 1793 255<512 1024>
VStem: 512 512<255 1279>
Fore
0 2048 m 1xf4
 1536 2048 l 1
 1536 1536 l 1
 1279 1536 l 1
 1279 1279 l 1
 1024 1279 l 1
 1024 255 l 1
 512 255 l 1
 512 1279 l 1
 769 1279 l 1
 769 1536 l 1
 1024 1536 l 1xf4
 1024 1793 l 1
 512 1793 l 1xec
 512 1536 l 1
 0 1536 l 1
 0 2048 l 1xf4
EndSplineSet
EndChar
StartChar: eight
Encoding: 56 56 24
Width: 2048
VWidth: 2619
Flags: W
TeX: 0 0 0 0
HStem: 255 257<512 1024> 512 512<0 255 1279 1536> 1024 255<512 1024> 1793 255<512 1024>
VStem: 0 512<512 1024 1279 1793> 1024 512<512 1024 1279 1793>
Fore
0 1024 m 1
 255 1024 l 1
 255 1279 l 1
 0 1279 l 1
 0 1793 l 1
 255 1793 l 1
 255 2048 l 1
 1279 2048 l 1
 1279 1793 l 1
 1536 1793 l 1
 1536 1279 l 1
 1279 1279 l 1
 1279 1024 l 1
 1536 1024 l 1
 1536 512 l 1
 1279 512 l 1
 1279 255 l 1
 255 255 l 1
 255 512 l 1
 0 512 l 1
 0 1024 l 1
512 1024 m 1
 512 512 l 1
 1024 512 l 1
 1024 1024 l 1
 512 1024 l 1
512 1793 m 1
 512 1279 l 1
 1024 1279 l 1
 1024 1793 l 1
 512 1793 l 1
EndSplineSet
EndChar
StartChar: nine
Encoding: 57 57 25
Width: 2048
VWidth: 2619
Flags: W
TeX: 0 0 0 0
HStem: 255 257<512 1024> 512 257<0 255> 1024 255<512 1024> 1793 255<512 1024>
VStem: 0 512<512 769 1279 1793> 1024 512<512 1024 1279 1793>
Fore
0 769 m 1
 512 769 l 1
 512 512 l 1
 1024 512 l 1
 1024 1024 l 1
 255 1024 l 1
 255 1279 l 1
 0 1279 l 1
 0 1793 l 1
 255 1793 l 1
 255 2048 l 1
 1279 2048 l 1
 1279 1793 l 1
 1536 1793 l 1
 1536 512 l 1
 1279 512 l 1
 1279 255 l 1
 255 255 l 1
 255 512 l 1
 0 512 l 1
 0 769 l 1
512 1793 m 1
 512 1279 l 1
 1024 1279 l 1
 1024 1793 l 1
 512 1793 l 1
EndSplineSet
EndChar
StartChar: colon
Encoding: 58 58 26
Width: 2048
VWidth: 2619
Flags: W
TeX: 0 0 0 0
HStem: 510 259<512 1024> 1279 269<512 1024>
VStem: 512 512<510 769 1279 1548>
Fore
512 1548 m 1
 1024 1548 l 1
 1024 1279 l 1
 512 1279 l 1
 512 1548 l 1
512 769 m 1
 1024 769 l 1
 1024 510 l 1
 512 510 l 1
 512 769 l 1
EndSplineSet
EndChar
StartChar: semicolon
Encoding: 59 59 27
Width: 2048
VWidth: 2619
Flags: W
TeX: 0 0 0 0
HStem: 0 21G<255 769> 235 20G<255 512> 1279 263<512 1024>
VStem: 512 512<255 769 1279 1542>
Fore
255 0 m 1
 255 255 l 1
 512 255 l 1
 512 769 l 1
 1024 769 l 1
 1024 255 l 1
 769 255 l 1
 769 0 l 1
 255 0 l 1
512 1542 m 1
 1024 1542 l 1
 1024 1279 l 1
 512 1279 l 1
 512 1542 l 1
EndSplineSet
EndChar
StartChar: less
Encoding: 60 60 28
Width: 2048
VWidth: 2619
Flags: W
TeX: 0 0 0 0
HStem: 255 257<1024 1536> 1024 255<0 255> 1516 20G<255 512> 1536 21G<769 1024> 1793 255<1024 1536>
VStem: 512 512<512 769 1536 1793>
Fore
1536 2048 m 1
 1536 1793 l 1
 1024 1793 l 1
 1024 1536 l 1
 769 1536 l 1
 769 1279 l 1
 512 1279 l 1
 512 1024 l 1
 769 1024 l 1
 769 769 l 1
 1024 769 l 1
 1024 512 l 1
 1536 512 l 1
 1536 255 l 1
 769 255 l 1
 769 512 l 1
 512 512 l 1
 512 769 l 1
 255 769 l 1
 255 1024 l 1
 0 1024 l 1
 0 1279 l 1
 255 1279 l 1
 255 1536 l 1
 512 1536 l 1
 512 1793 l 1
 769 1793 l 1
 769 2048 l 1
 1536 2048 l 1
EndSplineSet
EndChar
StartChar: equal
Encoding: 61 61 29
Width: 2048
VWidth: 2619
Flags: W
TeX: 0 0 0 0
HStem: 769 255<0 1536> 1279 257<0 1536>
Fore
0 1536 m 1
 1536 1536 l 1
 1536 1279 l 1
 0 1279 l 1
 0 1536 l 1
0 1024 m 1
 1536 1024 l 1
 1536 769 l 1
 0 769 l 1
 0 1024 l 1
EndSplineSet
EndChar
StartChar: greater
Encoding: 62 62 30
Width: 2048
VWidth: 2619
Flags: W
TeX: 0 0 0 0
HStem: 255 257<0 512> 1024 255<1279 1536> 1516 20G<1024 1279> 1536 21G<512 769> 1793 255<0 512>
VStem: 512 512<512 769 1536 1793> 769 510<769 1024 1279 1536>
Fore
0 2048 m 1xfa
 0 1793 l 1
 512 1793 l 1
 512 1536 l 1xfc
 769 1536 l 1
 769 1279 l 1xfa
 1024 1279 l 1
 1024 1024 l 1xfc
 769 1024 l 1
 769 769 l 1xfa
 512 769 l 1
 512 512 l 1xfc
 0 512 l 1
 0 255 l 1
 769 255 l 1
 769 512 l 1xfa
 1024 512 l 1
 1024 769 l 1xfc
 1279 769 l 1
 1279 1024 l 1
 1536 1024 l 1
 1536 1279 l 1
 1279 1279 l 1
 1279 1536 l 1xfa
 1024 1536 l 1
 1024 1793 l 1xfc
 769 1793 l 1
 769 2048 l 1
 0 2048 l 1xfa
EndSplineSet
EndChar
StartChar: question
Encoding: 63 63 31
Width: 2048
VWidth: 2619
Flags: W
TeX: 0 0 0 0
HStem: 255 257<512 1024> 769 255<512 769> 1259 20G<769 1024> 1279 21G<1279 1536> 1536 257<0 255> 1793 255<512 1024>
VStem: 512 512<255 512 769 1024> 1024 512<1279 1793>
Fore
0 1793 m 1
 255 1793 l 1
 255 2048 l 1
 1279 2048 l 1
 1279 1793 l 1
 1536 1793 l 1
 1536 1279 l 1
 1279 1279 l 1
 1279 1024 l 1
 1024 1024 l 1
 1024 769 l 1
 512 769 l 1
 512 1024 l 1
 769 1024 l 1
 769 1279 l 1
 1024 1279 l 1
 1024 1793 l 1
 512 1793 l 1
 512 1536 l 1
 0 1536 l 1
 0 1793 l 1
512 512 m 1
 1024 512 l 1
 1024 255 l 1
 512 255 l 1
 512 512 l 1
EndSplineSet
EndChar
StartChar: at
Encoding: 64 64 32
Width: 2048
VWidth: 2619
Flags: W
TeX: 0 0 0 0
HStem: 255 257<512 1279> 512 257<1279 1536> 1516 20G<769 1024> 1793 255<512 1024>
VStem: 0 512<512 1793> 1279 257<512 769>
Fore
0 1793 m 1
 255 1793 l 1
 255 2048 l 1
 1279 2048 l 1
 1279 1793 l 1
 1536 1793 l 1
 1536 1024 l 1
 769 1024 l 1
 769 1536 l 1
 1024 1536 l 1
 1024 1793 l 1
 512 1793 l 1
 512 512 l 1
 1279 512 l 1
 1279 255 l 1
 255 255 l 1
 255 512 l 1
 0 512 l 1
 0 1793 l 1
1279 512 m 1
 1279 769 l 1
 1536 769 l 1
 1536 512 l 1
 1279 512 l 1
EndSplineSet
EndChar
StartChar: A
Encoding: 65 65 33
Width: 2048
VWidth: 2619
Flags: W
TeX: 0 0 0 0
HStem: 255 21G<0 512 1024 1536> 1024 255<512 1024> 1536 512<512 1024>
VStem: 0 512<255 1024 1279 1536> 1024 512<255 1024 1279 1536>
Fore
0 1536 m 1
 255 1536 l 1
 255 1793 l 1
 512 1793 l 1
 512 2048 l 1
 1024 2048 l 1
 1024 1793 l 1
 1279 1793 l 1
 1279 1536 l 1
 1536 1536 l 1
 1536 255 l 1
 1024 255 l 1
 1024 1024 l 1
 512 1024 l 1
 512 255 l 1
 0 255 l 1
 0 1536 l 1
512 1536 m 1
 512 1279 l 1
 1024 1279 l 1
 1024 1536 l 1
 512 1536 l 1
EndSplineSet
EndChar
StartChar: B
Encoding: 66 66 34
Width: 2048
VWidth: 2619
Flags: W
TeX: 0 0 0 0
HStem: 255 257<512 1024> 1024 255<512 1024> 1793 255<512 1024>
VStem: 0 512<512 1024 1279 1793> 1024 512<512 1024 1279 1793>
Fore
0 2048 m 1
 1279 2048 l 1
 1279 1793 l 1
 1536 1793 l 1
 1536 1279 l 1
 1279 1279 l 1
 1279 1024 l 1
 1536 1024 l 1
 1536 512 l 1
 1279 512 l 1
 1279 255 l 1
 0 255 l 1
 0 2048 l 1
512 1024 m 1
 512 512 l 1
 1024 512 l 1
 1024 1024 l 1
 512 1024 l 1
512 1793 m 1
 512 1279 l 1
 1024 1279 l 1
 1024 1793 l 1
 512 1793 l 1
EndSplineSet
EndChar
StartChar: C
Encoding: 67 67 35
Width: 2048
VWidth: 2619
Flags: W
TeX: 0 0 0 0
HStem: 255 257<512 1024> 512 257<1279 1536> 1536 257<1279 1536> 1793 255<512 1024>
VStem: 0 512<512 1793> 1024 512<512 769 1536 1793>
Fore
0 1793 m 1
 255 1793 l 1
 255 2048 l 1
 1279 2048 l 1
 1279 1793 l 1
 1536 1793 l 1
 1536 1536 l 1
 1024 1536 l 1
 1024 1793 l 1
 512 1793 l 1
 512 512 l 1
 1024 512 l 1
 1024 769 l 1
 1536 769 l 1
 1536 512 l 1
 1279 512 l 1
 1279 255 l 1
 255 255 l 1
 255 512 l 1
 0 512 l 1
 0 1793 l 1
EndSplineSet
EndChar
StartChar: D
Encoding: 68 68 36
Width: 2048
VWidth: 2619
Flags: W
TeX: 0 0 0 0
HStem: 255 257<512 769> 1516 20G<769 1024> 1536 21G<1279 1536> 1793 255<512 769>
VStem: 0 512<512 1793> 769 510<512 769 1536 1793> 1024 512<769 1536>
Fore
0 2048 m 1xfa
 1024 2048 l 1
 1024 1793 l 1xfa
 1279 1793 l 1
 1279 1536 l 1xfc
 1536 1536 l 1
 1536 769 l 1xfa
 1279 769 l 1
 1279 512 l 1xfc
 1024 512 l 1
 1024 255 l 1
 0 255 l 1
 0 2048 l 1xfa
512 1793 m 1
 512 512 l 1
 769 512 l 1
 769 769 l 1xfc
 1024 769 l 1
 1024 1536 l 1xfa
 769 1536 l 1
 769 1793 l 1xfc
 512 1793 l 1
EndSplineSet
EndChar
StartChar: E
Encoding: 69 69 37
Width: 2048
VWidth: 2619
Flags: W
TeX: 0 0 0 0
HStem: 255 257<512 1536> 1024 255<512 1024> 1793 255<512 1536>
VStem: 0 512<512 1024 1279 1793>
Fore
0 2048 m 1
 1536 2048 l 1
 1536 1793 l 1
 512 1793 l 1
 512 1279 l 1
 1024 1279 l 1
 1024 1024 l 1
 512 1024 l 1
 512 512 l 1
 1536 512 l 1
 1536 255 l 1
 0 255 l 1
 0 2048 l 1
EndSplineSet
EndChar
StartChar: F
Encoding: 70 70 38
Width: 2048
VWidth: 2619
Flags: W
TeX: 0 0 0 0
HStem: 255 21G<0 512> 1024 255<512 1024> 1793 255<512 1536>
VStem: 0 512<255 1024 1279 1793>
Fore
0 2048 m 1
 1536 2048 l 1
 1536 1793 l 1
 512 1793 l 1
 512 1279 l 1
 1024 1279 l 1
 1024 1024 l 1
 512 1024 l 1
 512 255 l 1
 0 255 l 1
 0 2048 l 1
EndSplineSet
EndChar
StartChar: G
Encoding: 71 71 39
Width: 2048
VWidth: 2619
Flags: W
TeX: 0 0 0 0
HStem: 255 257<512 1024> 1024 255<769 1024> 1536 257<1279 1536> 1793 255<512 1024>
VStem: 0 512<512 1793> 1024 512<512 1024 1536 1793>
Fore
0 1793 m 1
 255 1793 l 1
 255 2048 l 1
 1279 2048 l 1
 1279 1793 l 1
 1536 1793 l 1
 1536 1536 l 1
 1024 1536 l 1
 1024 1793 l 1
 512 1793 l 1
 512 512 l 1
 1024 512 l 1
 1024 1024 l 1
 769 1024 l 1
 769 1279 l 1
 1536 1279 l 1
 1536 512 l 1
 1279 512 l 1
 1279 255 l 1
 255 255 l 1
 255 512 l 1
 0 512 l 1
 0 1793 l 1
EndSplineSet
EndChar
StartChar: H
Encoding: 72 72 40
Width: 2048
VWidth: 2621
Flags: W
TeX: 0 0 0 0
HStem: 256 21G<0 512 1024 1536> 1024 256<512 1024> 2028 20G<0 512 1024 1536>
VStem: 0 512<256 1024 1280 2048> 1024 512<256 1024 1280 2048>
Fore
0 2048 m 1
 512 2048 l 1
 512 1280 l 1
 1024 1280 l 1
 1024 2048 l 1
 1536 2048 l 1
 1536 256 l 1
 1024 256 l 1
 1024 1024 l 1
 512 1024 l 1
 512 256 l 1
 0 256 l 1
 0 2048 l 1
EndSplineSet
EndChar
StartChar: I
Encoding: 73 73 41
Width: 2048
VWidth: 2619
Flags: W
TeX: 0 0 0 0
HStem: 255 257<255 512 1024 1279> 1793 255<255 512 1024 1279>
VStem: 512 512<512 1793>
Fore
512 1793 m 1
 255 1793 l 1
 255 2048 l 1
 1279 2048 l 1
 1279 1793 l 1
 1024 1793 l 1
 1024 512 l 1
 1279 512 l 1
 1279 255 l 1
 255 255 l 1
 255 512 l 1
 512 512 l 1
 512 1793 l 1
EndSplineSet
EndChar
StartChar: J
Encoding: 74 74 42
Width: 2048
VWidth: 2619
Flags: W
TeX: 0 0 0 0
HStem: 254 256<512 769> 510 256<2 255> 1790 256<512 769 1279 1536>
VStem: 769 510<510 1790>
Fore
0 766 m 1
 512 766 l 1
 512 510 l 1
 769 510 l 1
 769 1790 l 1
 512 1790 l 1
 512 2046 l 1
 1536 2046 l 1
 1536 1790 l 1
 1279 1790 l 1
 1279 510 l 1
 1024 510 l 1
 1024 254 l 1
 255 254 l 1
 255 510 l 1
 2 510 l 1
 0 766 l 1
EndSplineSet
EndChar
StartChar: K
Encoding: 75 75 43
Width: 2048
VWidth: 2619
Flags: W
TeX: 0 0 0 0
HStem: 255 257<1279 1536> 1279 21G<769 1024> 1536 21G<512 769 1024 1279> 1793 255<1279 1536>
VStem: 0 512<255 769 1536 2048> 769 510<512 769 1536 1793> 1024 512<255 512 1793 2048>
Fore
0 2048 m 1xfc
 512 2048 l 1
 512 1536 l 1
 769 1536 l 1
 769 1793 l 1xfc
 1024 1793 l 1
 1024 2048 l 1
 1536 2048 l 1
 1536 1793 l 1xfa
 1279 1793 l 1
 1279 1536 l 1xfc
 1024 1536 l 1
 1024 1279 l 1xfa
 769 1279 l 1
 769 1024 l 1xfc
 1024 1024 l 1
 1024 769 l 1xfa
 1279 769 l 1
 1279 512 l 1xfc
 1536 512 l 1
 1536 255 l 1
 1024 255 l 1
 1024 512 l 1xfa
 769 512 l 1
 769 769 l 1
 512 769 l 1
 512 255 l 1
 0 255 l 1
 0 2048 l 1xfc
EndSplineSet
EndChar
StartChar: L
Encoding: 76 76 44
Width: 2048
VWidth: 2619
Flags: W
TeX: 0 0 0 0
HStem: 255 257<512 1536> 2028 20G<0 512>
VStem: 0 512<512 2048>
Fore
0 2048 m 1
 512 2048 l 1
 512 512 l 1
 1536 512 l 1
 1536 255 l 1
 0 255 l 1
 0 2048 l 1
EndSplineSet
EndChar
StartChar: M
Encoding: 77 77 45
Width: 2048
VWidth: 2619
Flags: W
TeX: 0 0 0 0
HStem: 255 21G<0 512 1290 1793> 1536 21G<769 1024> 1773 20G<1024 1279> 1793 21G<512 769> 2028 20G<0 512 1279 1793>
VStem: 0 512<255 1166 1793 2048> 773 260<936 1166> 1290 503<255 1166>
Fore
0 2048 m 1
 512 2048 l 1
 512 1793 l 1
 769 1793 l 1
 769 1536 l 1
 1024 1536 l 1
 1024 1793 l 1
 1279 1793 l 1
 1279 2048 l 1
 1793 2048 l 1
 1793 255 l 1
 1290 255 l 1
 1290 1166 l 1
 1033 1166 l 1
 1033 936 l 1
 773 936 l 1
 773 1166 l 1
 514 1166 l 1
 512 255 l 1
 0 255 l 1
 0 2048 l 1
EndSplineSet
EndChar
StartChar: N
Encoding: 78 78 46
Width: 2048
VWidth: 2619
Flags: W
TeX: 0 0 0 0
HStem: 255 21G<0 512 1024 1536> 1536 21G<769 1024> 1793 21G<512 769> 2028 20G<0 512 1024 1536>
VStem: 0 512<255 1024 1793 2048> 1024 512<255 769 1536 2048>
Fore
0 2048 m 1
 512 2048 l 1
 512 1793 l 1
 769 1793 l 1
 769 1536 l 1
 1024 1536 l 1
 1024 2048 l 1
 1536 2048 l 1
 1536 255 l 1
 1024 255 l 1
 1024 769 l 1
 769 769 l 1
 769 1024 l 1
 512 1024 l 1
 512 255 l 1
 0 255 l 1
 0 2048 l 1
EndSplineSet
EndChar
StartChar: O
Encoding: 79 79 47
Width: 2048
VWidth: 2619
Flags: W
TeX: 0 0 0 0
HStem: 255 257<512 1024> 1793 255<512 1024>
VStem: 0 512<512 1793> 1024 512<512 1793>
Fore
0 1793 m 1
 255 1793 l 1
 255 2048 l 1
 1279 2048 l 1
 1279 1793 l 1
 1536 1793 l 1
 1536 512 l 1
 1279 512 l 1
 1279 255 l 1
 255 255 l 1
 255 512 l 1
 0 512 l 1
 0 1793 l 1
512 1793 m 1
 512 512 l 1
 1024 512 l 1
 1024 1793 l 1
 512 1793 l 1
EndSplineSet
EndChar
StartChar: P
Encoding: 80 80 48
Width: 2048
VWidth: 2619
Flags: W
TeX: 0 0 0 0
HStem: 255 21G<0 512> 1024 255<512 1024> 1793 255<512 1024>
VStem: 0 512<255 1024 1279 1793> 1024 512<1279 1793>
Fore
0 2048 m 1
 1279 2048 l 1
 1279 1793 l 1
 1536 1793 l 1
 1536 1279 l 1
 1279 1279 l 1
 1279 1024 l 1
 512 1024 l 1
 512 255 l 1
 0 255 l 1
 0 2048 l 1
512 1793 m 1
 512 1279 l 1
 1024 1279 l 1
 1024 1793 l 1
 512 1793 l 1
EndSplineSet
EndChar
StartChar: Q
Encoding: 81 81 49
Width: 2048
VWidth: 2619
Flags: W
TeX: 0 0 0 0
HStem: 255 257<1279 1536> 512 257<512 769> 1793 255<512 1024>
VStem: 0 512<769 1793> 1024 512<769 1793>
Fore
0 1793 m 1
 0 769 l 1
 255 769 l 1
 255 512 l 1
 769 512 l 1
 769 255 l 1
 1536 255 l 1
 1536 512 l 1
 1279 512 l 1
 1279 769 l 1
 1536 769 l 1
 1536 1793 l 1
 1279 1793 l 1
 1279 2048 l 1
 255 2048 l 1
 255 1793 l 1
 0 1793 l 1
512 769 m 1
 512 1793 l 1
 1024 1793 l 1
 1024 769 l 1
 512 769 l 1
EndSplineSet
EndChar
StartChar: R
Encoding: 82 82 50
Width: 2048
VWidth: 2619
Flags: W
TeX: 0 0 0 0
HStem: 255 257<1279 1536> 1279 21G<512 1024 1279 1536> 1793 255<512 1024>
VStem: 0 512<255 769 1279 1793> 1024 512<255 512 1279 1793>
Fore
0 2048 m 1
 1279 2048 l 1
 1279 1793 l 1
 1536 1793 l 1
 1536 1279 l 1
 1279 1279 l 1
 1279 1024 l 1
 1024 1024 l 1
 1024 769 l 1
 1279 769 l 1
 1279 512 l 1
 1536 512 l 1
 1536 255 l 1
 1024 255 l 1
 1024 512 l 1
 769 512 l 1
 769 769 l 1
 512 769 l 1
 512 255 l 1
 0 255 l 1
 0 2048 l 1
512 1793 m 1
 512 1279 l 1
 1024 1279 l 1
 1024 1793 l 1
 512 1793 l 1
EndSplineSet
EndChar
StartChar: S
Encoding: 83 83 51
Width: 2048
VWidth: 2619
Flags: W
TeX: 0 0 0 0
HStem: 255 257<512 1024> 512 257<0 255> 1024 255<512 1024> 1536 257<1279 1536> 1793 255<512 1024>
VStem: 0 512<512 769 1279 1793> 1024 512<512 1024 1536 1793>
Fore
0 769 m 1
 512 769 l 1
 512 512 l 1
 1024 512 l 1
 1024 1024 l 1
 255 1024 l 1
 255 1279 l 1
 0 1279 l 1
 0 1793 l 1
 255 1793 l 1
 255 2048 l 1
 1279 2048 l 1
 1279 1793 l 1
 1536 1793 l 1
 1536 1536 l 1
 1024 1536 l 1
 1024 1793 l 1
 512 1793 l 1
 512 1279 l 1
 1279 1279 l 1
 1279 1024 l 1
 1536 1024 l 1
 1536 512 l 1
 1279 512 l 1
 1279 255 l 1
 255 255 l 1
 255 512 l 1
 0 512 l 1
 0 769 l 1
EndSplineSet
EndChar
StartChar: T
Encoding: 84 84 52
Width: 2048
VWidth: 2619
Flags: W
TeX: 0 0 0 0
HStem: 255 21G<512 1024> 1793 255<0 512 1024 1536>
VStem: 512 512<255 1793>
Fore
0 2048 m 1
 1536 2048 l 1
 1536 1793 l 1
 1024 1793 l 1
 1024 255 l 1
 512 255 l 1
 512 1793 l 1
 0 1793 l 1
 0 2048 l 1
EndSplineSet
EndChar
StartChar: U
Encoding: 85 85 53
Width: 2048
VWidth: 2619
Flags: W
TeX: 0 0 0 0
HStem: 255 257<512 1024> 2028 20G<0 512 1024 1536>
VStem: 0 512<512 2048> 1024 512<512 2048>
Fore
0 2048 m 1
 512 2048 l 1
 512 512 l 1
 1024 512 l 1
 1024 2048 l 1
 1536 2048 l 1
 1536 512 l 1
 1279 512 l 1
 1279 255 l 1
 255 255 l 1
 255 512 l 1
 0 512 l 1
 0 2048 l 1
EndSplineSet
EndChar
StartChar: V
Encoding: 86 86 54
Width: 2048
VWidth: 2619
Flags: W
TeX: 0 0 0 0
HStem: 255 21G<512 1024> 2028 20G<0 512 1024 1536>
VStem: 0 512<769 2048> 1024 512<769 2048>
Fore
0 2048 m 1
 512 2048 l 1
 512 769 l 1
 1024 769 l 1
 1024 2048 l 1
 1536 2048 l 1
 1536 769 l 1
 1279 769 l 1
 1279 512 l 1
 1024 512 l 1
 1024 255 l 1
 512 255 l 1
 512 512 l 1
 255 512 l 1
 255 769 l 1
 0 769 l 1
 0 2048 l 1
EndSplineSet
EndChar
StartChar: W
Encoding: 87 87 55
Width: 2048
VWidth: 2619
Flags: W
TeX: 0 0 0 0
HStem: 255 21G<0 512 1279 1793> 512 512<512 769 1024 1279> 1259 20G<769 1024> 2028 20G<0 512 1279 1793>
VStem: 0 512<255 512 1024 2048> 769 255<1024 1279> 1279 514<255 512 1024 2048>
Fore
0 255 m 1
 512 255 l 1
 512 512 l 1
 769 512 l 1
 769 769 l 1
 1024 769 l 1
 1024 512 l 1
 1279 512 l 1
 1279 255 l 1
 1793 255 l 1
 1793 2048 l 1
 1279 2048 l 1
 1279 1024 l 1
 1024 1024 l 1
 1024 1279 l 1
 769 1279 l 1
 769 1024 l 1
 512 1024 l 1
 512 2048 l 1
 0 2048 l 1
 0 255 l 1
EndSplineSet
EndChar
StartChar: X
Encoding: 88 88 56
Width: 2048
VWidth: 2619
Flags: W
TeX: 0 0 0 0
HStem: 255 21G<0 512 1024 1536> 1259 20G<255 512> 1536 512<0 255 1279 1536>
VStem: 0 512<255 769 1536 2048> 1024 512<255 769 1536 2048>
Fore
0 769 m 1
 255 769 l 1
 255 1024 l 1
 512 1024 l 1
 512 1279 l 1
 255 1279 l 1
 255 1536 l 1
 0 1536 l 1
 0 2048 l 1
 512 2048 l 1
 512 1536 l 1
 1024 1536 l 1
 1024 2048 l 1
 1536 2048 l 1
 1536 1536 l 1
 1279 1536 l 1
 1279 1279 l 1
 1024 1279 l 1
 1024 1024 l 1
 1279 1024 l 1
 1279 769 l 1
 1536 769 l 1
 1536 255 l 1
 1024 255 l 1
 1024 769 l 1
 512 769 l 1
 512 255 l 1
 0 255 l 1
 0 769 l 1
EndSplineSet
EndChar
StartChar: Y
Encoding: 89 89 57
Width: 2048
VWidth: 2619
Flags: W
TeX: 0 0 0 0
HStem: 255 21G<512 1024> 1259 20G<0 255> 1279 21G<512 1024 1279 1536> 2028 20G<0 512 1024 1536>
VStem: 0 512<1279 2048> 512 512<255 1024> 1024 512<1279 2048>
CounterMasks: 1 0e
Fore
0 2048 m 1
 512 2048 l 1
 512 1279 l 1
 1024 1279 l 1
 1024 2048 l 1
 1536 2048 l 1
 1536 1279 l 1
 1279 1279 l 1
 1279 1024 l 1
 1024 1024 l 1
 1024 255 l 1
 512 255 l 1
 512 1024 l 1
 255 1024 l 1
 255 1279 l 1
 0 1279 l 1
 0 2048 l 1
EndSplineSet
EndChar
StartChar: Z
Encoding: 90 90 58
Width: 2048
VWidth: 2619
Flags: W
TeX: 0 0 0 0
HStem: 255 257<512 1536> 1259 20G<512 769> 1516 20G<769 1024> 1793 255<0 1024>
Fore
0 769 m 1
 255 769 l 1
 255 1024 l 1
 512 1024 l 1
 512 1279 l 1
 769 1279 l 1
 769 1536 l 1
 1024 1536 l 1
 1024 1793 l 1
 0 1793 l 1
 0 2048 l 1
 1536 2048 l 1
 1536 1536 l 1
 1279 1536 l 1
 1279 1279 l 1
 1024 1279 l 1
 1024 1024 l 1
 769 1024 l 1
 769 769 l 1
 512 769 l 1
 512 512 l 1
 1536 512 l 1
 1536 255 l 1
 0 255 l 1
 0 769 l 1
EndSplineSet
EndChar
StartChar: bracketleft
Encoding: 91 91 59
Width: 2048
VWidth: 2619
Flags: W
TeX: 0 0 0 0
HStem: 255 257<512 1024> 1793 255<512 1024>
VStem: 0 512<512 1793>
Fore
0 2048 m 1
 1024 2048 l 1
 1024 1793 l 1
 512 1793 l 1
 512 512 l 1
 1024 512 l 1
 1024 255 l 1
 0 255 l 1
 0 2048 l 1
EndSplineSet
EndChar
StartChar: backslash
Encoding: 92 92 60
Width: 2048
VWidth: 2619
Flags: W
TeX: 0 0 0 0
HStem: 255 257<0 255 769 1536> 512 257<1536 1793> 1024 255<255 512 1024 1536> 1536 257<1536 1793> 1793 255<1024 1536>
VStem: 512 512<769 1024 1279 1536> 769 255<1536 1793> 1536 257<512 769 1536 1793>
Fore
0 512 m 1xfb
 255 512 l 1
 255 769 l 1
 512 769 l 1
 512 1024 l 1
 255 1024 l 1
 255 1279 l 1
 512 1279 l 1
 512 1536 l 1xfd
 769 1536 l 1
 769 1793 l 1
 1024 1793 l 1
 1024 2048 l 1
 1536 2048 l 1
 1536 1793 l 1
 1793 1793 l 1
 1793 1536 l 1
 1536 1536 l 1
 1536 1793 l 1
 1024 1793 l 1xfb
 1024 1279 l 1
 1536 1279 l 1
 1536 1024 l 1
 1024 1024 l 1
 1024 769 l 1xfd
 769 769 l 1
 769 512 l 1
 1536 512 l 1
 1536 769 l 1
 1793 769 l 1
 1793 512 l 1
 1536 512 l 1
 1536 255 l 1
 0 255 l 1
 0 512 l 1xfb
EndSplineSet
EndChar
StartChar: bracketright
Encoding: 93 93 61
Width: 2048
VWidth: 2619
Flags: W
TeX: 0 0 0 0
HStem: 255 257<0 512> 1793 255<0 512>
VStem: 512 512<512 1793>
Fore
1024 2048 m 1
 0 2048 l 1
 0 1793 l 1
 512 1793 l 1
 512 512 l 1
 0 512 l 1
 0 255 l 1
 1024 255 l 1
 1024 2048 l 1
EndSplineSet
EndChar
StartChar: asciicircum
Encoding: 94 94 62
Width: 2048
VWidth: 2619
Flags: W
TeX: 0 0 0 0
HStem: 0 21G<512 1024> 1024 512<255 512 1024 1279> 1024 255<0 255 1279 1536> 1773 20G<512 1024>
VStem: 512 512<0 1024 1536 1793>
Fore
0 1279 m 1xb8
 255 1279 l 1xb8
 255 1536 l 1
 512 1536 l 1
 512 1793 l 1
 1024 1793 l 1
 1024 1536 l 1
 1279 1536 l 1xd8
 1279 1279 l 1
 1536 1279 l 1
 1536 1024 l 1xb8
 1024 1024 l 1
 1024 0 l 1
 512 0 l 1
 512 1024 l 1xd8
 0 1024 l 1
 0 1279 l 1xb8
EndSplineSet
EndChar
StartChar: underscore
Encoding: 95 95 63
Width: 2048
VWidth: 2619
Flags: W
TeX: 0 0 0 0
HStem: 255 21G<512 769> 769 510<0 255 769 1797> 1516 20G<255 512> 1773 20G<512 769>
VStem: 255 514<512 769 1279 1536> 512 257<255 512 1536 1793>
Fore
0 1279 m 1xf8
 255 1279 l 1
 255 1536 l 1xf8
 512 1536 l 1
 512 1793 l 1
 769 1793 l 1xf4
 769 1279 l 1
 1797 1279 l 1
 1797 769 l 1
 769 769 l 1xf8
 769 255 l 1
 512 255 l 1
 512 512 l 1xf4
 255 512 l 1
 255 769 l 1
 0 769 l 1
 0 1279 l 1xf8
EndSplineSet
EndChar
StartChar: grave
Encoding: 96 96 64
Width: 2048
VWidth: 2619
Flags: W
TeX: 0 0 0 0
HStem: 769 510<0 2048>
Fore
0 1279 m 1
 2048 1279 l 1
 2048 769 l 1
 0 769 l 1
 0 1279 l 1
EndSplineSet
EndChar
StartChar: a
Encoding: 97 97 65
Width: 2048
VWidth: 2619
Flags: W
TeX: 0 0 0 0
HStem: 255 257<512 769 1536 1793> 769 510<255 512 1793 2048> 1516 20G<512 769> 1773 20G<769 1024> 1793 21G<1279 1536> 2028 20G<1024 1279>
VStem: 1024 255<1793 2048>
Fore
255 1279 m 1
 512 1279 l 1
 512 1536 l 1
 769 1536 l 1
 769 1793 l 1
 1024 1793 l 1
 1024 2048 l 1
 1279 2048 l 1
 1279 1793 l 1
 1536 1793 l 1
 1536 1536 l 1
 1793 1536 l 1
 1793 1279 l 1
 2048 1279 l 1
 2048 769 l 1
 1536 769 l 1
 1536 512 l 1
 1793 512 l 1
 1793 255 l 1
 512 255 l 1
 512 512 l 1
 769 512 l 1
 769 769 l 1
 255 769 l 1
 255 1279 l 1
EndSplineSet
EndChar
StartChar: b
Encoding: 98 98 66
Width: 2048
VWidth: 2619
Flags: W
TeX: 0 0 0 0
HStem: 0 21G<769 1279> 2028 20G<769 1279>
VStem: 769 510<0 2048>
Fore
769 2048 m 1
 1279 2048 l 1
 1279 0 l 1
 769 0 l 1
 769 2048 l 1
EndSplineSet
EndChar
StartChar: c
Encoding: 99 99 67
Width: 2048
VWidth: 2619
Flags: W
TeX: 0 0 0 0
HStem: 769 510<0 2048>
Fore
0 1279 m 1
 2048 1279 l 1
 2048 769 l 1
 0 769 l 1
 0 1279 l 1
EndSplineSet
EndChar
StartChar: d
Encoding: 100 100 68
Width: 2048
VWidth: 2619
Flags: W
TeX: 0 0 0 0
HStem: 1024 512<0 2048>
Fore
0 1536 m 1
 2048 1536 l 1
 2048 1024 l 1
 0 1024 l 1
 0 1536 l 1
EndSplineSet
EndChar
StartChar: e
Encoding: 101 101 69
Width: 2048
VWidth: 2619
Flags: W
TeX: 0 0 0 0
HStem: 1279 514<0 2048>
Fore
0 1793 m 1
 2048 1793 l 1
 2048 1279 l 1
 0 1279 l 1
 0 1793 l 1
EndSplineSet
EndChar
StartChar: f
Encoding: 102 102 70
Width: 2048
VWidth: 2619
Flags: W
TeX: 0 0 0 0
HStem: 512 512<0 2048>
Fore
0 1024 m 1
 2048 1024 l 1
 2048 512 l 1
 0 512 l 1
 0 1024 l 1
EndSplineSet
EndChar
StartChar: g
Encoding: 103 103 71
Width: 2048
VWidth: 2619
Flags: W
TeX: 0 0 0 0
HStem: 0 21G<512 1024> 2028 20G<514 1024>
VStem: 514 510<0 2048>
Fore
514 2048 m 1
 1024 2048 l 1
 1024 0 l 1
 512 0 l 1
 514 2048 l 1
EndSplineSet
EndChar
StartChar: h
Encoding: 104 104 72
Width: 2048
VWidth: 2619
Flags: W
TeX: 0 0 0 0
HStem: 0 21G<1024 1534> 2028 20G<1024 1536>
VStem: 1024 510<0 2048>
Fore
1024 0 m 1
 1024 2048 l 1
 1536 2048 l 1
 1534 0 l 1
 1024 0 l 1
EndSplineSet
EndChar
StartChar: i
Encoding: 105 105 73
Width: 2048
VWidth: 2619
Flags: W
TeX: 0 0 0 0
HStem: 0 21G<766 1278> 769 510<0 512>
VStem: 766 512<0 512>
Fore
0 1279 m 1
 769 1279 l 1
 769 1024 l 1
 1024 1024 l 1
 1024 769 l 1
 1279 769 l 1
 1278 0 l 1
 766 0 l 1
 769 512 l 1
 512 512 l 1
 512 769 l 1
 0 769 l 1
 0 1279 l 1
EndSplineSet
EndChar
StartChar: j
Encoding: 106 106 74
Width: 2048
VWidth: 2619
Flags: W
TeX: 0 0 0 0
HStem: 769 510<1536 2048> 1536 21G<1279 1536> 2028 20G<769 1279>
VStem: 769 510<1536 2048>
Fore
2063 769 m 1
 1279 769 l 1
 1279 1024 l 1
 1024 1024 l 1
 1024 1279 l 1
 769 1279 l 1
 769 2048 l 1
 1279 2048 l 1
 1279 1536 l 1
 1536 1536 l 1
 1536 1279 l 1
 2048 1279 l 1
 2063 769 l 1
EndSplineSet
EndChar
StartChar: k
Encoding: 107 107 75
Width: 2048
VWidth: 2619
Flags: W
TeX: 0 0 0 0
HStem: 769 510<0 512> 1536 21G<512 769> 2028 20G<769 1279>
VStem: 769 510<1536 2048>
Fore
0 769 m 1
 769 769 l 1
 769 1024 l 1
 1024 1024 l 1
 1024 1279 l 1
 1279 1279 l 1
 1279 2048 l 1
 769 2048 l 1
 769 1536 l 1
 512 1536 l 1
 512 1279 l 1
 0 1279 l 1
 0 769 l 1
EndSplineSet
EndChar
StartChar: l
Encoding: 108 108 76
Width: 2048
VWidth: 2619
Flags: W
TeX: 0 0 0 0
HStem: 0 512<512 2048> 2028 20G<0 512>
VStem: 0 512<512 2048>
Fore
0 2048 m 1
 512 2048 l 1
 512 512 l 1
 2048 512 l 1
 2048 0 l 1
 0 0 l 1
 0 2048 l 1
EndSplineSet
EndChar
StartChar: m
Encoding: 109 109 77
Width: 2048
VWidth: 2619
Flags: W
TeX: 0 0 0 0
HStem: 0 21G<1536 2048> 235 20G<1279 1536> 1259 20G<255 512> 1279 21G<1024 1279> 1516 20G<0 255> 1536 21G<769 1024> 1793 21G<512 769> 2028 20G<0 512>
Fore
0 2048 m 1
 512 2048 l 1
 512 1793 l 1
 769 1793 l 1
 769 1536 l 1
 1024 1536 l 1
 1024 1279 l 1
 1279 1279 l 1
 1279 1024 l 1
 1536 1024 l 1
 1536 769 l 1
 1793 769 l 1
 1793 512 l 1
 2048 512 l 1
 2048 0 l 1
 1536 0 l 1
 1536 255 l 1
 1279 255 l 1
 1279 512 l 1
 1024 512 l 1
 1024 769 l 1
 769 769 l 1
 769 1024 l 1
 512 1024 l 1
 512 1279 l 1
 255 1279 l 1
 255 1536 l 1
 0 1536 l 1
 0 2048 l 1
EndSplineSet
EndChar
StartChar: n
Encoding: 110 110 78
Width: 2048
VWidth: 2619
Flags: W
TeX: 0 0 0 0
HStem: 0 21G<0 512> 235 20G<512 769> 1259 20G<1536 1793> 1279 21G<769 1024> 1516 20G<1793 2048> 1536 21G<1024 1279> 1793 21G<1279 1536> 2028 20G<1536 2048>
Fore
2048 2048 m 1
 1536 2048 l 1
 1536 1793 l 1
 1279 1793 l 1
 1279 1536 l 1
 1024 1536 l 1
 1024 1279 l 1
 769 1279 l 1
 769 1024 l 1
 512 1024 l 1
 512 769 l 1
 255 769 l 1
 255 512 l 1
 0 512 l 1
 0 0 l 1
 512 0 l 1
 512 255 l 1
 769 255 l 1
 769 512 l 1
 1024 512 l 1
 1024 769 l 1
 1279 769 l 1
 1279 1024 l 1
 1536 1024 l 1
 1536 1279 l 1
 1793 1279 l 1
 1793 1536 l 1
 2048 1536 l 1
 2048 2048 l 1
EndSplineSet
EndChar
StartChar: o
Encoding: 111 111 79
Width: 2048
VWidth: 2619
Flags: W
TeX: 0 0 0 0
HStem: 0 21G<0 512> 1536 512<512 2048>
VStem: 0 512<0 1536>
Fore
0 0 m 1
 512 0 l 1
 512 1536 l 1
 2048 1536 l 1
 2048 2048 l 1
 0 2048 l 1
 0 0 l 1
EndSplineSet
EndChar
StartChar: p
Encoding: 112 112 80
Width: 2048
VWidth: 2619
Flags: W
TeX: 0 0 0 0
HStem: 0 21G<1536 2048> 1536 512<0 1536>
VStem: 1536 512<0 1536>
Fore
2048 0 m 1
 1536 0 l 1
 1536 1536 l 1
 0 1536 l 1
 0 2048 l 1
 2048 2048 l 1
 2048 0 l 1
EndSplineSet
EndChar
StartChar: q
Encoding: 113 113 81
Width: 2048
VWidth: 2619
Flags: W
TeX: 0 0 0 0
HStem: 255 21G<512 1536> 1516 20G<255 512> 1773 20G<512 1536>
Fore
255 1536 m 1
 512 1536 l 1
 512 1793 l 1
 1536 1793 l 1
 1536 1536 l 1
 1793 1536 l 1
 1793 512 l 1
 1536 512 l 1
 1536 255 l 1
 512 255 l 1
 512 512 l 1
 255 512 l 1
 255 1536 l 1
EndSplineSet
EndChar
StartChar: r
Encoding: 114 114 82
Width: 2048
VWidth: 2619
Flags: W
TeX: 0 0 0 0
HStem: 255 514<0 2048>
Fore
0 769 m 1
 2048 769 l 1
 2048 255 l 1
 0 255 l 1
 0 769 l 1
EndSplineSet
EndChar
StartChar: s
Encoding: 115 115 83
Width: 2048
VWidth: 2619
Flags: W
TeX: 0 0 0 0
HStem: 255 21G<1024 1279> 1773 20G<255 512> 2028 20G<512 1024 1279 1793>
VStem: 1024 255<255 512>
Fore
255 1793 m 1
 512 1793 l 1
 512 2048 l 1
 1024 2048 l 1
 1024 1793 l 1
 1279 1793 l 1
 1279 2048 l 1
 1793 2048 l 1
 1793 1793 l 1
 2048 1793 l 1
 2048 1024 l 1
 1793 1024 l 1
 1793 769 l 1
 1536 769 l 1
 1536 512 l 1
 1279 512 l 1
 1279 255 l 1
 1024 255 l 1
 1024 512 l 1
 769 512 l 1
 769 769 l 1
 512 769 l 1
 512 1024 l 1
 255 1024 l 1
 255 1793 l 1
EndSplineSet
EndChar
StartChar: t
Encoding: 116 116 84
Width: 2048
VWidth: 2619
Flags: W
TeX: 0 0 0 0
HStem: 0 21G<255 769> 2028 20G<255 769>
VStem: 255 514<0 2048>
Fore
255 2048 m 1
 769 2048 l 1
 769 0 l 1
 255 0 l 1
 255 2048 l 1
EndSplineSet
EndChar
StartChar: u
Encoding: 117 117 85
Width: 2048
VWidth: 2619
Flags: W
TeX: 0 0 0 0
HStem: 0 21G<769 1279> 769 510<1536 2048>
VStem: 769 510<0 512>
Fore
2048 1279 m 1
 1279 1279 l 1
 1279 1024 l 1
 1024 1024 l 1
 1024 769 l 1
 769 769 l 1
 769 0 l 1
 1279 0 l 1
 1279 512 l 1
 1536 512 l 1
 1536 769 l 1
 2048 769 l 1
 2048 1279 l 1
EndSplineSet
EndChar
StartChar: v
Encoding: 118 118 86
Width: 2048
VWidth: 2619
Flags: W
TeX: 0 0 0 0
HStem: 0 512<0 255 1793 2048> 1259 20G<255 512> 1536 512<0 255 1793 2048>
VStem: 0 512<0 255 1793 2048> 1536 512<0 255 1793 2048>
Fore
0 512 m 1
 255 512 l 1
 255 769 l 1
 512 769 l 1
 512 1279 l 1
 255 1279 l 1
 255 1536 l 1
 0 1536 l 1
 0 2048 l 1
 512 2048 l 1
 512 1793 l 1
 769 1793 l 1
 769 1536 l 1
 1279 1536 l 1
 1279 1793 l 1
 1536 1793 l 1
 1536 2048 l 1
 2048 2048 l 1
 2048 1536 l 1
 1793 1536 l 1
 1793 1279 l 1
 1536 1279 l 1
 1536 769 l 1
 1793 769 l 1
 1793 512 l 1
 2048 512 l 1
 2048 0 l 1
 1536 0 l 1
 1536 255 l 1
 1279 255 l 1
 1279 512 l 1
 769 512 l 1
 769 255 l 1
 512 255 l 1
 512 0 l 1
 0 0 l 1
 0 512 l 1
EndSplineSet
EndChar
StartChar: w
Encoding: 119 119 87
Width: 2048
VWidth: 2619
Flags: W
TeX: 0 0 0 0
HStem: 255 21G<512 1536> 1259 20G<769 1279> 1516 20G<255 512> 1773 20G<512 1536>
Fore
255 1536 m 1
 512 1536 l 1
 512 1793 l 1
 1536 1793 l 1
 1536 1536 l 1
 1793 1536 l 1
 1793 512 l 1
 1536 512 l 1
 1536 255 l 1
 512 255 l 1
 512 512 l 1
 255 512 l 1
 255 1536 l 1
769 1279 m 1
 769 769 l 1
 1279 769 l 1
 1279 1279 l 1
 769 1279 l 1
EndSplineSet
EndChar
StartChar: x
Encoding: 120 120 88
Width: 2048
VWidth: 2619
Flags: W
TeX: 0 0 0 0
HStem: 255 257<512 769 1279 1536> 1024 512<255 769 1279 1793> 1536 512<769 1279>
VStem: 769 510<512 1024 1536 2048>
Fore
255 1536 m 1
 769 1536 l 1
 769 2048 l 1
 1279 2048 l 1
 1279 1536 l 1
 1793 1536 l 1
 1793 1024 l 1
 1279 1024 l 1
 1279 512 l 1
 1536 512 l 1
 1536 255 l 1
 512 255 l 1
 512 512 l 1
 769 512 l 1
 769 1024 l 1
 255 1024 l 1
 255 1536 l 1
769 1536 m 1
 769 1024 l 1
 1279 1024 l 1
 1279 1536 l 1
 769 1536 l 1
EndSplineSet
EndChar
StartChar: y
Encoding: 121 121 89
Width: 2048
VWidth: 2619
Flags: W
TeX: 0 0 0 0
HStem: 0 21G<1279 1793> 2028 20G<1279 1793>
VStem: 1279 514<0 2048>
Fore
1279 0 m 1
 1279 2048 l 1
 1793 2048 l 1
 1793 0 l 1
 1279 0 l 1
EndSplineSet
EndChar
StartChar: z
Encoding: 122 122 90
Width: 2048
VWidth: 2619
Flags: W
TeX: 0 0 0 0
HStem: 255 21G<1024 1279> 1024 255<255 512 1793 2048> 1516 20G<512 769> 1773 20G<769 1024> 1793 21G<1279 1536> 2028 20G<1024 1279>
VStem: 1024 255<255 512 1793 2048>
Fore
255 1279 m 1
 512 1279 l 1
 512 1536 l 1
 769 1536 l 1
 769 1793 l 1
 1024 1793 l 1
 1024 2048 l 1
 1279 2048 l 1
 1279 1793 l 1
 1536 1793 l 1
 1536 1536 l 1
 1793 1536 l 1
 1793 1279 l 1
 2048 1279 l 1
 2048 1024 l 1
 1793 1024 l 1
 1793 769 l 1
 1536 769 l 1
 1536 512 l 1
 1279 512 l 1
 1279 255 l 1
 1024 255 l 1
 1024 512 l 1
 769 512 l 1
 769 769 l 1
 512 769 l 1
 512 1024 l 1
 255 1024 l 1
 255 1279 l 1
EndSplineSet
EndChar
StartChar: braceleft
Encoding: 123 123 91
Width: 2048
VWidth: 2619
Flags: W
TeX: 0 0 0 0
HStem: 0 21G<769 1279> 769 510<0 769 1279 2048> 2028 20G<769 1279>
VStem: 769 510<0 769 1279 2048>
Fore
0 1279 m 1
 769 1279 l 1
 769 2048 l 1
 1279 2048 l 1
 1279 1279 l 1
 2048 1279 l 1
 2048 769 l 1
 1279 769 l 1
 1279 0 l 1
 769 0 l 1
 769 769 l 1
 0 769 l 1
 0 1279 l 1
EndSplineSet
EndChar
StartChar: bar
Encoding: 124 124 92
Width: 2048
VWidth: 2619
Flags: W
TeX: 0 0 0 0
HStem: 0 512<512 1024> 512 512<0 512> 1024 512<512 1024> 1536 512<0 512>
VStem: 0 512<512 1024 1536 2048> 512 512<0 512 1024 1536>
Fore
0 2048 m 1
 512 2048 l 1
 512 1536 l 1
 1024 1536 l 1
 1024 1024 l 1
 512 1024 l 1
 512 512 l 1
 1024 512 l 1
 1024 0 l 1
 512 0 l 1
 512 512 l 1
 0 512 l 1
 0 1024 l 1
 512 1024 l 1
 512 1536 l 1
 0 1536 l 1
 0 2048 l 1
EndSplineSet
EndChar
StartChar: braceright
Encoding: 125 125 93
Width: 2048
VWidth: 2619
Flags: W
TeX: 0 0 0 0
HStem: 0 21G<769 1279> 2028 20G<769 1279>
VStem: 769 510<0 2048>
Fore
769 2048 m 1
 1279 2048 l 1
 1279 0 l 1
 769 0 l 1
 769 2048 l 1
EndSplineSet
EndChar
StartChar: asciitilde
Encoding: 126 126 94
Width: 2048
VWidth: 2619
Flags: W
TeX: 0 0 0 0
HStem: 255 21G<512 1024 1279 1793> 769 255<255 512> 1024 255<1024 1279> 1279 257<1793 2048>
VStem: 512 512<255 769> 1279 514<255 1024>
Fore
255 1024 m 1
 512 1024 l 1
 512 1279 l 1
 1279 1279 l 1
 1279 1536 l 1
 2048 1536 l 1
 2048 1279 l 1
 1793 1279 l 1
 1793 255 l 1
 1279 255 l 1
 1279 1024 l 1
 1024 1024 l 1
 1024 255 l 1
 512 255 l 1
 512 769 l 1
 255 769 l 1
 255 1024 l 1
EndSplineSet
EndChar
StartChar: uni007F
Encoding: 127 127 95
Width: 2048
VWidth: 2619
Flags: W
TeX: 0 0 0 0
HStem: 0 21G<1793 2048> 235 20G<1536 1793> 1259 20G<512 769> 1516 20G<255 512> 1793 255<0 255>
VStem: 1793 255<0 255>
Fore
0 2048 m 1
 2048 2048 l 1
 2048 0 l 1
 1793 0 l 1
 1793 255 l 1
 1536 255 l 1
 1536 512 l 1
 1279 512 l 1
 1279 769 l 1
 1024 769 l 1
 1024 1024 l 1
 769 1024 l 1
 769 1279 l 1
 512 1279 l 1
 512 1536 l 1
 255 1536 l 1
 255 1793 l 1
 0 1793 l 1
 0 2048 l 1
EndSplineSet
EndChar
StartChar: exclamdown
Encoding: 161 161 97
Width: 2048
VWidth: 2619
Flags: W
TeX: 0 0 0 0
HStem: 0 21G<0 1024> 2028 20G<0 1024>
VStem: 0 1024<0 2048>
Fore
0 2048 m 1
 1024 2048 l 1
 1024 0 l 1
 0 0 l 1
 0 2048 l 1
EndSplineSet
EndChar
StartChar: cent
Encoding: 162 162 98
Width: 2048
VWidth: 2619
Flags: W
TeX: 0 0 0 0
HStem: 0 1024<0 2048>
Fore
0 0 m 1
 0 1024 l 1
 2048 1024 l 1
 2048 0 l 1
 0 0 l 1
EndSplineSet
EndChar
StartChar: sterling
Encoding: 163 163 99
Width: 2048
VWidth: 2619
Flags: W
TeX: 0 0 0 0
HStem: 1793 255<0 2048>
Fore
0 1793 m 1
 2048 1793 l 1
 2048 2048 l 1
 0 2048 l 1
 0 1793 l 1
EndSplineSet
EndChar
StartChar: currency
Encoding: 164 164 100
Width: 2048
VWidth: 2619
Flags: W
TeX: 0 0 0 0
HStem: 0 21G<0 2048> 235 20G<0 2048>
Fore
0 255 m 1
 2048 255 l 1
 2048 0 l 1
 0 0 l 1
 0 255 l 1
EndSplineSet
EndChar
StartChar: yen
Encoding: 165 165 101
Width: 2048
VWidth: 2619
Flags: W
TeX: 0 0 0 0
HStem: 0 21G<0 512> 2028 20G<0 512>
VStem: 0 512<0 2048>
Fore
0 2048 m 1
 512 2048 l 1
 512 0 l 1
 0 0 l 1
 0 2048 l 1
EndSplineSet
EndChar
StartChar: brokenbar
Encoding: 166 166 102
Width: 2048
VWidth: 2619
Flags: W
TeX: 0 0 0 0
HStem: 0 512<512 1024 1536 2048> 512 512<0 512 1024 1536> 1024 512<512 1024 1536 2048> 1536 512<0 512 1024 1536>
VStem: 0 512<512 1024 1536 2048> 512 512<0 512 1024 1536> 1024 512<512 1024 1536 2048> 1536 512<0 512 1024 1536>
Fore
1024 2048 m 1
 1536 2048 l 1
 1536 1536 l 1
 2048 1536 l 1
 2048 1024 l 1
 1536 1024 l 1
 1536 512 l 1
 2048 512 l 1
 2048 0 l 1
 1536 0 l 1
 1536 512 l 1
 1024 512 l 1
 1024 1024 l 1
 1536 1024 l 1
 1536 1536 l 1
 1024 1536 l 1
 1024 2048 l 1
0 2048 m 1
 512 2048 l 1
 512 1536 l 1
 1024 1536 l 1
 1024 1024 l 1
 512 1024 l 1
 512 512 l 1
 1024 512 l 1
 1024 0 l 1
 512 0 l 1
 512 512 l 1
 0 512 l 1
 0 1024 l 1
 512 1024 l 1
 512 1536 l 1
 0 1536 l 1
 0 2048 l 1
EndSplineSet
EndChar
StartChar: section
Encoding: 167 167 103
Width: 2048
VWidth: 2619
Flags: W
TeX: 0 0 0 0
HStem: 0 21G<1536 2048> 2028 20G<1536 2048>
VStem: 1536 512<0 2048>
Fore
1536 2048 m 1
 2048 2048 l 1
 2048 0 l 1
 1536 0 l 1
 1536 2048 l 1
EndSplineSet
EndChar
StartChar: dieresis
Encoding: 168 168 104
Width: 2048
VWidth: 2619
Flags: W
TeX: 0 0 0 0
HStem: 0 512<512 1024 1536 2048> 512 512<0 512 1024 1536>
VStem: 0 512<512 1024> 512 512<0 512> 1024 512<512 1024> 1536 512<0 512>
Fore
1536 1024 m 1
 1536 512 l 1
 2048 512 l 1
 2048 0 l 1
 1536 0 l 1
 1536 512 l 1
 1024 512 l 1
 1024 1024 l 1
 1536 1024 l 1
512 1024 m 1
 512 512 l 1
 1024 512 l 1
 1024 0 l 1
 512 0 l 1
 512 512 l 1
 0 512 l 1
 0 1024 l 1
 512 1024 l 1
EndSplineSet
EndChar
StartChar: copyright
Encoding: 169 169 105
Width: 2048
VWidth: 2619
Flags: W
TeX: 0 0 0 0
HStem: 0 21G<0 255> 235 20G<255 512> 1259 20G<1279 1536> 1516 20G<1536 1793> 1793 255<1793 2048>
VStem: 0 255<0 255>
Fore
2048 2048 m 1
 0 2048 l 1
 0 0 l 1
 255 0 l 1
 255 255 l 1
 512 255 l 1
 512 512 l 1
 769 512 l 1
 769 769 l 1
 1024 769 l 1
 1024 1024 l 1
 1279 1024 l 1
 1279 1279 l 1
 1536 1279 l 1
 1536 1536 l 1
 1793 1536 l 1
 1793 1793 l 1
 2048 1793 l 1
 2048 2048 l 1
EndSplineSet
EndChar
StartChar: ordfeminine
Encoding: 170 170 106
Width: 2048
VWidth: 2619
Flags: W
TeX: 0 0 0 0
HStem: 0 21G<1536 2050> 2028 20G<1538 2048>
VStem: 1538 510<0 2048>
Fore
1538 2048 m 1
 2048 2048 l 1
 2050 0 l 1
 1536 0 l 1
 1538 2048 l 1
EndSplineSet
EndChar
StartChar: guillemotleft
Encoding: 171 171 107
Width: 2048
VWidth: 2619
Flags: W
TeX: 0 0 0 0
HStem: 0 21G<769 1279> 769 510<1279 2048> 2028 20G<769 1279>
VStem: 769 510<0 769 1279 2048>
Fore
769 1024 m 1
 769 2048 l 1
 1279 2048 l 1
 1279 1279 l 1
 2048 1279 l 1
 2048 769 l 1
 1279 769 l 1
 1279 0 l 1
 769 0 l 1
 769 1024 l 1
EndSplineSet
EndChar
StartChar: logicalnot
Encoding: 172 172 108
Width: 2048
VWidth: 2619
Flags: W
TeX: 0 0 0 0
HStem: 0 1024<1024 2048>
VStem: 1024 1024<0 1024>
Fore
1024 1024 m 1
 2048 1024 l 1
 2048 0 l 1
 1024 0 l 1
 1024 1024 l 1
EndSplineSet
EndChar
StartChar: uni00AD
Encoding: 173 173 109
Width: 2048
VWidth: 2619
Flags: W
TeX: 0 0 0 0
HStem: 769 510<1279 2048> 2028 20G<769 1279>
VStem: 769 510<1279 2048>
Fore
2048 1279 m 1
 1279 1279 l 1
 1279 2048 l 1
 769 2048 l 1
 769 769 l 1
 2048 769 l 1
 2048 1279 l 1
EndSplineSet
EndChar
StartChar: registered
Encoding: 174 174 110
Width: 2048
VWidth: 2619
Flags: W
TeX: 0 0 0 0
HStem: 0 21G<769 1279> 769 510<0 769>
VStem: 769 510<0 769>
Fore
0 1279 m 1
 1279 1279 l 1
 1279 0 l 1
 769 0 l 1
 769 769 l 1
 0 769 l 1
 0 1279 l 1
EndSplineSet
EndChar
StartChar: macron
Encoding: 175 175 111
Width: 2048
VWidth: 2619
Flags: W
TeX: 0 0 0 0
HStem: 0 512<0 2048>
Fore
0 512 m 1
 2048 512 l 1
 2048 0 l 1
 0 0 l 1
 0 512 l 1
EndSplineSet
EndChar
StartChar: degree
Encoding: 176 176 112
Width: 2048
VWidth: 2619
Flags: W
TeX: 0 0 0 0
HStem: 0 21G<769 1279> 769 510<1279 2048>
VStem: 769 510<0 769>
Fore
2048 1279 m 1
 769 1279 l 1
 769 0 l 1
 1279 0 l 1
 1279 769 l 1
 2048 769 l 1
 2048 1279 l 1
EndSplineSet
EndChar
StartChar: plusminus
Encoding: 177 177 113
Width: 2048
VWidth: 2619
Flags: W
TeX: 0 0 0 0
HStem: 769 510<0 769 1279 2048> 2028 20G<769 1279>
VStem: 769 510<1279 2048>
Fore
0 1279 m 1
 769 1279 l 1
 769 2048 l 1
 1279 2048 l 1
 1279 1279 l 1
 2048 1279 l 1
 2048 769 l 1
 0 769 l 1
 0 1279 l 1
EndSplineSet
EndChar
StartChar: uni00B2
Encoding: 178 178 114
Width: 2048
VWidth: 2619
Flags: W
TeX: 0 0 0 0
HStem: 0 21G<769 1279> 769 510<0 769 1279 2048>
VStem: 769 510<0 769>
Fore
0 1279 m 1
 2048 1279 l 1
 2048 769 l 1
 1279 769 l 1
 1279 0 l 1
 769 0 l 1
 769 769 l 1
 0 769 l 1
 0 1279 l 1
EndSplineSet
EndChar
StartChar: uni00B3
Encoding: 179 179 115
Width: 2048
VWidth: 2619
Flags: W
TeX: 0 0 0 0
HStem: 0 21G<769 1279> 769 510<0 769> 2028 20G<769 1279>
VStem: 769 510<0 769 1279 2048>
Fore
0 1279 m 1
 769 1279 l 1
 769 2048 l 1
 1279 2048 l 1
 1279 0 l 1
 769 0 l 1
 769 769 l 1
 0 769 l 1
 0 1279 l 1
EndSplineSet
EndChar
StartChar: acute
Encoding: 180 180 116
Width: 2048
VWidth: 2619
Flags: W
TeX: 0 0 0 0
HStem: 0 21G<0 512> 2028 20G<0 512>
VStem: 0 512<0 2048>
Fore
0 2048 m 1
 512 2048 l 1
 512 0 l 1
 0 0 l 1
 0 2048 l 1
EndSplineSet
EndChar
StartChar: uni00B5
Encoding: 181 181 117
Width: 2048
VWidth: 2619
Flags: W
TeX: 0 0 0 0
HStem: 0 21G<0 769> 2028 20G<0 769>
VStem: 0 769<0 2048>
Fore
0 2048 m 1
 769 2048 l 1
 769 0 l 1
 0 0 l 1
 0 2048 l 1
EndSplineSet
EndChar
StartChar: paragraph
Encoding: 182 182 118
Width: 2048
VWidth: 2619
Flags: W
TeX: 0 0 0 0
HStem: 0 21G<1279 2048> 2028 20G<1279 2048>
VStem: 1279 769<0 2048>
Fore
1279 2048 m 1
 2048 2048 l 1
 2048 0 l 1
 1279 0 l 1
 1279 2048 l 1
EndSplineSet
EndChar
StartChar: periodcentered
Encoding: 183 183 119
Width: 2048
VWidth: 2619
Flags: W
TeX: 0 0 0 0
HStem: 1536 512<0 2048>
Fore
0 1536 m 1
 2048 1536 l 1
 2048 2048 l 1
 0 2048 l 1
 0 1536 l 1
EndSplineSet
EndChar
StartChar: cedilla
Encoding: 184 184 120
Width: 2048
VWidth: 2619
Flags: W
TeX: 0 0 0 0
HStem: 1279 769<0 2048>
Fore
0 1279 m 1
 2048 1279 l 1
 2048 2048 l 1
 0 2048 l 1
 0 1279 l 1
EndSplineSet
EndChar
StartChar: uni00B9
Encoding: 185 185 121
Width: 2048
VWidth: 2619
Flags: W
TeX: 0 0 0 0
HStem: 0 769<0 2048>
Fore
0 769 m 1
 2048 769 l 1
 2048 0 l 1
 0 0 l 1
 0 769 l 1
EndSplineSet
EndChar
StartChar: ordmasculine
Encoding: 186 186 122
Width: 2048
VWidth: 2619
Flags: W
TeX: 0 0 0 0
HStem: 0 512<0 1536> 2028 20G<1536 2048>
VStem: 1536 512<512 2048>
Fore
2048 2048 m 1
 1536 2048 l 1
 1536 512 l 1
 0 512 l 1
 0 0 l 1
 2048 0 l 1
 2048 2048 l 1
EndSplineSet
EndChar
StartChar: guillemotright
Encoding: 187 187 123
Width: 2048
VWidth: 2619
Flags: W
TeX: 0 0 0 0
HStem: 0 1024<0 1024>
VStem: 0 1024<0 1024>
Fore
1024 1024 m 1
 0 1024 l 1
 0 0 l 1
 1024 0 l 1
 1024 1024 l 1
EndSplineSet
EndChar
StartChar: onequarter
Encoding: 188 188 124
Width: 2048
VWidth: 2619
Flags: W
TeX: 0 0 0 0
HStem: 1024 1024<1024 2048>
VStem: 1024 1024<1024 2048>
Fore
1024 2048 m 1
 2048 2048 l 1
 2048 1024 l 1
 1024 1024 l 1
 1024 2048 l 1
EndSplineSet
Ligature: 0 0 'frac' one slash four
Ligature: 0 0 'frac' one fraction four
EndChar
StartChar: onehalf
Encoding: 189 189 125
Width: 2048
VWidth: 2619
Flags: W
TeX: 0 0 0 0
HStem: 769 510<0 769> 2028 20G<769 1279>
VStem: 769 510<1279 2048>
Fore
0 1279 m 1
 769 1279 l 1
 769 2048 l 1
 1279 2048 l 1
 1279 769 l 1
 0 769 l 1
 0 1279 l 1
EndSplineSet
Ligature: 0 0 'frac' one slash two
Ligature: 0 0 'frac' one fraction two
EndChar
StartChar: threequarters
Encoding: 190 190 126
Width: 2048
VWidth: 2619
Flags: W
TeX: 0 0 0 0
HStem: 1024 1024<0 1024>
VStem: 0 1024<1024 2048>
Fore
0 2048 m 1
 1024 2048 l 1
 1024 1024 l 1
 0 1024 l 1
 0 2048 l 1
EndSplineSet
Ligature: 0 0 'frac' three slash four
Ligature: 0 0 'frac' three fraction four
EndChar
StartChar: questiondown
Encoding: 191 191 127
Width: 2048
VWidth: 2619
Flags: W
TeX: 0 0 0 0
HStem: 0 1024<1024 2048> 1024 1024<0 1024>
VStem: 0 1024<1024 2048> 1024 1024<0 1024>
Fore
0 2048 m 1
 1024 2048 l 1
 1024 1024 l 1
 0 1024 l 1
 0 2048 l 1
1024 1024 m 1
 2048 1024 l 1
 2048 0 l 1
 1024 0 l 1
 1024 1024 l 1
EndSplineSet
EndChar
StartChar: Agrave
Encoding: 192 192 128
Width: 2048
VWidth: 2619
Flags: W
TeX: 0 0 0 0
HStem: 769 510<0 2048>
Fore
0 1279 m 1
 2048 1279 l 1
 2048 769 l 1
 0 769 l 1
 0 1279 l 1
EndSplineSet
EndChar
StartChar: Aacute
Encoding: 193 193 129
Width: 2048
VWidth: 2619
Flags: W
TeX: 0 0 0 0
HStem: 255 257<512 769 1536 1793> 769 510<255 512 1793 2048> 1516 20G<512 769> 1773 20G<769 1024> 1793 21G<1279 1536> 2028 20G<1024 1279>
VStem: 1024 255<1793 2048>
Fore
255 1279 m 1
 512 1279 l 1
 512 1536 l 1
 769 1536 l 1
 769 1793 l 1
 1024 1793 l 1
 1024 2048 l 1
 1279 2048 l 1
 1279 1793 l 1
 1536 1793 l 1
 1536 1536 l 1
 1793 1536 l 1
 1793 1279 l 1
 2048 1279 l 1
 2048 769 l 1
 1536 769 l 1
 1536 512 l 1
 1793 512 l 1
 1793 255 l 1
 512 255 l 1
 512 512 l 1
 769 512 l 1
 769 769 l 1
 255 769 l 1
 255 1279 l 1
EndSplineSet
EndChar
StartChar: Acircumflex
Encoding: 194 194 130
Width: 2048
VWidth: 2619
Flags: W
TeX: 0 0 0 0
HStem: 0 21G<769 1279> 2028 20G<769 1279>
VStem: 769 510<0 2048>
Fore
769 2048 m 1
 1279 2048 l 1
 1279 0 l 1
 769 0 l 1
 769 2048 l 1
EndSplineSet
EndChar
StartChar: Atilde
Encoding: 195 195 131
Width: 2048
VWidth: 2619
Flags: W
TeX: 0 0 0 0
HStem: 769 510<0 2048>
Fore
0 1279 m 1
 2048 1279 l 1
 2048 769 l 1
 0 769 l 1
 0 1279 l 1
EndSplineSet
EndChar
StartChar: Adieresis
Encoding: 196 196 132
Width: 2048
VWidth: 2619
Flags: W
TeX: 0 0 0 0
HStem: 1024 512<0 2048>
Fore
0 1536 m 1
 2048 1536 l 1
 2048 1024 l 1
 0 1024 l 1
 0 1536 l 1
EndSplineSet
EndChar
StartChar: Aring
Encoding: 197 197 133
Width: 2048
VWidth: 2619
Flags: W
TeX: 0 0 0 0
HStem: 1279 514<0 2048>
Fore
0 1793 m 1
 2048 1793 l 1
 2048 1279 l 1
 0 1279 l 1
 0 1793 l 1
EndSplineSet
EndChar
StartChar: AE
Encoding: 198 198 134
Width: 2048
VWidth: 2619
Flags: W
TeX: 0 0 0 0
HStem: 512 512<0 2048>
Fore
0 1024 m 1
 2048 1024 l 1
 2048 512 l 1
 0 512 l 1
 0 1024 l 1
EndSplineSet
EndChar
StartChar: Ccedilla
Encoding: 199 199 135
Width: 2048
VWidth: 2619
Flags: W
TeX: 0 0 0 0
HStem: 0 21G<512 1024> 2028 20G<514 1024>
VStem: 514 510<0 2048>
Fore
514 2048 m 1
 1024 2048 l 1
 1024 0 l 1
 512 0 l 1
 514 2048 l 1
EndSplineSet
EndChar
StartChar: Egrave
Encoding: 200 200 136
Width: 2048
VWidth: 2619
Flags: W
TeX: 0 0 0 0
HStem: 0 21G<1024 1534> 2028 20G<1024 1536>
VStem: 1024 510<0 2048>
Fore
1024 0 m 1
 1024 2048 l 1
 1536 2048 l 1
 1534 0 l 1
 1024 0 l 1
EndSplineSet
EndChar
StartChar: Eacute
Encoding: 201 201 137
Width: 2048
VWidth: 2619
Flags: W
TeX: 0 0 0 0
HStem: 0 21G<766 1278> 769 510<0 512>
VStem: 766 512<0 512>
Fore
0 1279 m 1
 769 1279 l 1
 769 1024 l 1
 1024 1024 l 1
 1024 769 l 1
 1279 769 l 1
 1278 0 l 1
 766 0 l 1
 769 512 l 1
 512 512 l 1
 512 769 l 1
 0 769 l 1
 0 1279 l 1
EndSplineSet
EndChar
StartChar: Ecircumflex
Encoding: 202 202 138
Width: 2048
VWidth: 2619
Flags: W
TeX: 0 0 0 0
HStem: 769 510<1536 2048> 1536 21G<1279 1536> 2028 20G<769 1279>
VStem: 769 510<1536 2048>
Fore
2063 769 m 1
 1279 769 l 1
 1279 1024 l 1
 1024 1024 l 1
 1024 1279 l 1
 769 1279 l 1
 769 2048 l 1
 1279 2048 l 1
 1279 1536 l 1
 1536 1536 l 1
 1536 1279 l 1
 2048 1279 l 1
 2063 769 l 1
EndSplineSet
EndChar
StartChar: Edieresis
Encoding: 203 203 139
Width: 2048
VWidth: 2619
Flags: W
TeX: 0 0 0 0
HStem: 769 510<0 512> 1536 21G<512 769> 2028 20G<769 1279>
VStem: 769 510<1536 2048>
Fore
0 769 m 1
 769 769 l 1
 769 1024 l 1
 1024 1024 l 1
 1024 1279 l 1
 1279 1279 l 1
 1279 2048 l 1
 769 2048 l 1
 769 1536 l 1
 512 1536 l 1
 512 1279 l 1
 0 1279 l 1
 0 769 l 1
EndSplineSet
EndChar
StartChar: Igrave
Encoding: 204 204 140
Width: 2048
VWidth: 2619
Flags: W
TeX: 0 0 0 0
HStem: 0 512<512 2048> 2028 20G<0 512>
VStem: 0 512<512 2048>
Fore
0 2048 m 1
 512 2048 l 1
 512 512 l 1
 2048 512 l 1
 2048 0 l 1
 0 0 l 1
 0 2048 l 1
EndSplineSet
EndChar
StartChar: Iacute
Encoding: 205 205 141
Width: 2048
VWidth: 2619
Flags: W
TeX: 0 0 0 0
HStem: 0 21G<1536 2048> 235 20G<1279 1536> 1259 20G<255 512> 1279 21G<1024 1279> 1516 20G<0 255> 1536 21G<769 1024> 1793 21G<512 769> 2028 20G<0 512>
Fore
0 2048 m 1
 512 2048 l 1
 512 1793 l 1
 769 1793 l 1
 769 1536 l 1
 1024 1536 l 1
 1024 1279 l 1
 1279 1279 l 1
 1279 1024 l 1
 1536 1024 l 1
 1536 769 l 1
 1793 769 l 1
 1793 512 l 1
 2048 512 l 1
 2048 0 l 1
 1536 0 l 1
 1536 255 l 1
 1279 255 l 1
 1279 512 l 1
 1024 512 l 1
 1024 769 l 1
 769 769 l 1
 769 1024 l 1
 512 1024 l 1
 512 1279 l 1
 255 1279 l 1
 255 1536 l 1
 0 1536 l 1
 0 2048 l 1
EndSplineSet
EndChar
StartChar: Icircumflex
Encoding: 206 206 142
Width: 2048
VWidth: 2619
Flags: W
TeX: 0 0 0 0
HStem: 0 21G<0 512> 235 20G<512 769> 1259 20G<1536 1793> 1279 21G<769 1024> 1516 20G<1793 2048> 1536 21G<1024 1279> 1793 21G<1279 1536> 2028 20G<1536 2048>
Fore
2048 2048 m 1
 1536 2048 l 1
 1536 1793 l 1
 1279 1793 l 1
 1279 1536 l 1
 1024 1536 l 1
 1024 1279 l 1
 769 1279 l 1
 769 1024 l 1
 512 1024 l 1
 512 769 l 1
 255 769 l 1
 255 512 l 1
 0 512 l 1
 0 0 l 1
 512 0 l 1
 512 255 l 1
 769 255 l 1
 769 512 l 1
 1024 512 l 1
 1024 769 l 1
 1279 769 l 1
 1279 1024 l 1
 1536 1024 l 1
 1536 1279 l 1
 1793 1279 l 1
 1793 1536 l 1
 2048 1536 l 1
 2048 2048 l 1
EndSplineSet
EndChar
StartChar: Idieresis
Encoding: 207 207 143
Width: 2048
VWidth: 2619
Flags: W
TeX: 0 0 0 0
HStem: 0 21G<0 512> 1536 512<512 2048>
VStem: 0 512<0 1536>
Fore
0 0 m 1
 512 0 l 1
 512 1536 l 1
 2048 1536 l 1
 2048 2048 l 1
 0 2048 l 1
 0 0 l 1
EndSplineSet
EndChar
StartChar: Eth
Encoding: 208 208 144
Width: 2048
VWidth: 2619
Flags: W
TeX: 0 0 0 0
HStem: 0 21G<1536 2048> 1536 512<0 1536>
VStem: 1536 512<0 1536>
Fore
2048 0 m 1
 1536 0 l 1
 1536 1536 l 1
 0 1536 l 1
 0 2048 l 1
 2048 2048 l 1
 2048 0 l 1
EndSplineSet
EndChar
StartChar: Ntilde
Encoding: 209 209 145
Width: 2048
VWidth: 2619
Flags: W
TeX: 0 0 0 0
HStem: 255 21G<512 1536> 1516 20G<255 512> 1773 20G<512 1536>
Fore
255 1536 m 1
 512 1536 l 1
 512 1793 l 1
 1536 1793 l 1
 1536 1536 l 1
 1793 1536 l 1
 1793 512 l 1
 1536 512 l 1
 1536 255 l 1
 512 255 l 1
 512 512 l 1
 255 512 l 1
 255 1536 l 1
EndSplineSet
EndChar
StartChar: Ograve
Encoding: 210 210 146
Width: 2048
VWidth: 2619
Flags: W
TeX: 0 0 0 0
HStem: 255 514<0 2048>
Fore
0 769 m 1
 2048 769 l 1
 2048 255 l 1
 0 255 l 1
 0 769 l 1
EndSplineSet
EndChar
StartChar: Oacute
Encoding: 211 211 147
Width: 2048
VWidth: 2619
Flags: W
TeX: 0 0 0 0
HStem: 255 21G<1024 1279> 1773 20G<255 512> 2028 20G<512 1024 1279 1793>
VStem: 1024 255<255 512>
Fore
255 1793 m 1
 512 1793 l 1
 512 2048 l 1
 1024 2048 l 1
 1024 1793 l 1
 1279 1793 l 1
 1279 2048 l 1
 1793 2048 l 1
 1793 1793 l 1
 2048 1793 l 1
 2048 1024 l 1
 1793 1024 l 1
 1793 769 l 1
 1536 769 l 1
 1536 512 l 1
 1279 512 l 1
 1279 255 l 1
 1024 255 l 1
 1024 512 l 1
 769 512 l 1
 769 769 l 1
 512 769 l 1
 512 1024 l 1
 255 1024 l 1
 255 1793 l 1
EndSplineSet
EndChar
StartChar: Ocircumflex
Encoding: 212 212 148
Width: 2048
VWidth: 2619
Flags: W
TeX: 0 0 0 0
HStem: 0 21G<255 769> 2028 20G<255 769>
VStem: 255 514<0 2048>
Fore
255 2048 m 1
 769 2048 l 1
 769 0 l 1
 255 0 l 1
 255 2048 l 1
EndSplineSet
EndChar
StartChar: Otilde
Encoding: 213 213 149
Width: 2048
VWidth: 2619
Flags: W
TeX: 0 0 0 0
HStem: 0 21G<769 1279> 769 510<1536 2048>
VStem: 769 510<0 512>
Fore
2048 1279 m 1
 1279 1279 l 1
 1279 1024 l 1
 1024 1024 l 1
 1024 769 l 1
 769 769 l 1
 769 0 l 1
 1279 0 l 1
 1279 512 l 1
 1536 512 l 1
 1536 769 l 1
 2048 769 l 1
 2048 1279 l 1
EndSplineSet
EndChar
StartChar: Odieresis
Encoding: 214 214 150
Width: 2048
VWidth: 2619
Flags: W
TeX: 0 0 0 0
HStem: 0 512<0 255 1793 2048> 1259 20G<255 512> 1536 512<0 255 1793 2048>
VStem: 0 512<0 255 1793 2048> 1536 512<0 255 1793 2048>
Fore
0 512 m 1
 255 512 l 1
 255 769 l 1
 512 769 l 1
 512 1279 l 1
 255 1279 l 1
 255 1536 l 1
 0 1536 l 1
 0 2048 l 1
 512 2048 l 1
 512 1793 l 1
 769 1793 l 1
 769 1536 l 1
 1279 1536 l 1
 1279 1793 l 1
 1536 1793 l 1
 1536 2048 l 1
 2048 2048 l 1
 2048 1536 l 1
 1793 1536 l 1
 1793 1279 l 1
 1536 1279 l 1
 1536 769 l 1
 1793 769 l 1
 1793 512 l 1
 2048 512 l 1
 2048 0 l 1
 1536 0 l 1
 1536 255 l 1
 1279 255 l 1
 1279 512 l 1
 769 512 l 1
 769 255 l 1
 512 255 l 1
 512 0 l 1
 0 0 l 1
 0 512 l 1
EndSplineSet
EndChar
StartChar: multiply
Encoding: 215 215 151
Width: 2048
VWidth: 2619
Flags: W
TeX: 0 0 0 0
HStem: 255 21G<512 1536> 1259 20G<769 1279> 1516 20G<255 512> 1773 20G<512 1536>
Fore
255 1536 m 1
 512 1536 l 1
 512 1793 l 1
 1536 1793 l 1
 1536 1536 l 1
 1793 1536 l 1
 1793 512 l 1
 1536 512 l 1
 1536 255 l 1
 512 255 l 1
 512 512 l 1
 255 512 l 1
 255 1536 l 1
769 1279 m 1
 769 769 l 1
 1279 769 l 1
 1279 1279 l 1
 769 1279 l 1
EndSplineSet
EndChar
StartChar: Oslash
Encoding: 216 216 152
Width: 2048
VWidth: 2619
Flags: W
TeX: 0 0 0 0
HStem: 255 257<512 769 1279 1536> 1024 512<255 769 1279 1793> 1536 512<769 1279>
VStem: 769 510<512 1024 1536 2048>
Fore
255 1536 m 1
 769 1536 l 1
 769 2048 l 1
 1279 2048 l 1
 1279 1536 l 1
 1793 1536 l 1
 1793 1024 l 1
 1279 1024 l 1
 1279 512 l 1
 1536 512 l 1
 1536 255 l 1
 512 255 l 1
 512 512 l 1
 769 512 l 1
 769 1024 l 1
 255 1024 l 1
 255 1536 l 1
769 1536 m 1
 769 1024 l 1
 1279 1024 l 1
 1279 1536 l 1
 769 1536 l 1
EndSplineSet
EndChar
StartChar: Ugrave
Encoding: 217 217 153
Width: 2048
VWidth: 2619
Flags: W
TeX: 0 0 0 0
HStem: 0 21G<1279 1793> 2028 20G<1279 1793>
VStem: 1279 514<0 2048>
Fore
1279 0 m 1
 1279 2048 l 1
 1793 2048 l 1
 1793 0 l 1
 1279 0 l 1
EndSplineSet
EndChar
StartChar: Uacute
Encoding: 218 218 154
Width: 2048
VWidth: 2619
Flags: W
TeX: 0 0 0 0
HStem: 255 21G<1024 1279> 1024 255<255 512 1793 2048> 1516 20G<512 769> 1773 20G<769 1024> 1793 21G<1279 1536> 2028 20G<1024 1279>
VStem: 1024 255<255 512 1793 2048>
Fore
255 1279 m 1
 512 1279 l 1
 512 1536 l 1
 769 1536 l 1
 769 1793 l 1
 1024 1793 l 1
 1024 2048 l 1
 1279 2048 l 1
 1279 1793 l 1
 1536 1793 l 1
 1536 1536 l 1
 1793 1536 l 1
 1793 1279 l 1
 2048 1279 l 1
 2048 1024 l 1
 1793 1024 l 1
 1793 769 l 1
 1536 769 l 1
 1536 512 l 1
 1279 512 l 1
 1279 255 l 1
 1024 255 l 1
 1024 512 l 1
 769 512 l 1
 769 769 l 1
 512 769 l 1
 512 1024 l 1
 255 1024 l 1
 255 1279 l 1
EndSplineSet
EndChar
StartChar: Ucircumflex
Encoding: 219 219 155
Width: 2048
VWidth: 2619
Flags: W
TeX: 0 0 0 0
HStem: 0 21G<769 1279> 769 510<0 769 1279 2048> 2028 20G<769 1279>
VStem: 769 510<0 769 1279 2048>
Fore
0 1279 m 1
 769 1279 l 1
 769 2048 l 1
 1279 2048 l 1
 1279 1279 l 1
 2048 1279 l 1
 2048 769 l 1
 1279 769 l 1
 1279 0 l 1
 769 0 l 1
 769 769 l 1
 0 769 l 1
 0 1279 l 1
EndSplineSet
EndChar
StartChar: Udieresis
Encoding: 220 220 156
Width: 2048
VWidth: 2619
Flags: W
TeX: 0 0 0 0
HStem: 0 512<512 1024> 512 512<0 512> 1024 512<512 1024> 1536 512<0 512>
VStem: 0 512<512 1024 1536 2048> 512 512<0 512 1024 1536>
Fore
0 2048 m 1
 512 2048 l 1
 512 1536 l 1
 1024 1536 l 1
 1024 1024 l 1
 512 1024 l 1
 512 512 l 1
 1024 512 l 1
 1024 0 l 1
 512 0 l 1
 512 512 l 1
 0 512 l 1
 0 1024 l 1
 512 1024 l 1
 512 1536 l 1
 0 1536 l 1
 0 2048 l 1
EndSplineSet
EndChar
StartChar: Yacute
Encoding: 221 221 157
Width: 2048
VWidth: 2619
Flags: W
TeX: 0 0 0 0
HStem: 0 21G<769 1279> 2028 20G<769 1279>
VStem: 769 510<0 2048>
Fore
769 2048 m 1
 1279 2048 l 1
 1279 0 l 1
 769 0 l 1
 769 2048 l 1
EndSplineSet
EndChar
StartChar: Thorn
Encoding: 222 222 158
Width: 2048
VWidth: 2619
Flags: W
TeX: 0 0 0 0
HStem: 255 21G<512 1024 1279 1793> 769 255<255 512> 1024 255<1024 1279> 1279 257<1793 2048>
VStem: 512 512<255 769> 1279 514<255 1024>
Fore
255 1024 m 1
 512 1024 l 1
 512 1279 l 1
 1279 1279 l 1
 1279 1536 l 1
 2048 1536 l 1
 2048 1279 l 1
 1793 1279 l 1
 1793 255 l 1
 1279 255 l 1
 1279 1024 l 1
 1024 1024 l 1
 1024 255 l 1
 512 255 l 1
 512 769 l 1
 255 769 l 1
 255 1024 l 1
EndSplineSet
EndChar
StartChar: germandbls
Encoding: 223 223 159
Width: 2048
VWidth: 2619
Flags: W
TeX: 0 0 0 0
HStem: 0 21G<1793 2048> 235 20G<1536 1793> 1259 20G<512 769> 1516 20G<255 512> 1793 255<0 255>
VStem: 1793 255<0 255>
Fore
0 2048 m 1
 2048 2048 l 1
 2048 0 l 1
 1793 0 l 1
 1793 255 l 1
 1536 255 l 1
 1536 512 l 1
 1279 512 l 1
 1279 769 l 1
 1024 769 l 1
 1024 1024 l 1
 769 1024 l 1
 769 1279 l 1
 512 1279 l 1
 512 1536 l 1
 255 1536 l 1
 255 1793 l 1
 0 1793 l 1
 0 2048 l 1
EndSplineSet
EndChar
StartChar: aacute
Encoding: 225 225 161
Width: 2048
VWidth: 2619
Flags: W
TeX: 0 0 0 0
HStem: 0 21G<0 1024> 2028 20G<0 1024>
VStem: 0 1024<0 2048>
Fore
0 2048 m 1
 1024 2048 l 1
 1024 0 l 1
 0 0 l 1
 0 2048 l 1
EndSplineSet
EndChar
StartChar: acircumflex
Encoding: 226 226 162
Width: 2048
VWidth: 2619
Flags: W
TeX: 0 0 0 0
HStem: 0 1024<0 2048>
Fore
0 0 m 1
 0 1024 l 1
 2048 1024 l 1
 2048 0 l 1
 0 0 l 1
EndSplineSet
EndChar
StartChar: atilde
Encoding: 227 227 163
Width: 2048
VWidth: 2619
Flags: W
TeX: 0 0 0 0
HStem: 1793 255<0 2048>
Fore
0 1793 m 1
 2048 1793 l 1
 2048 2048 l 1
 0 2048 l 1
 0 1793 l 1
EndSplineSet
EndChar
StartChar: adieresis
Encoding: 228 228 164
Width: 2048
VWidth: 2619
Flags: W
TeX: 0 0 0 0
HStem: 0 21G<0 2048> 235 20G<0 2048>
Fore
0 255 m 1
 2048 255 l 1
 2048 0 l 1
 0 0 l 1
 0 255 l 1
EndSplineSet
EndChar
StartChar: aring
Encoding: 229 229 165
Width: 2048
VWidth: 2619
Flags: W
TeX: 0 0 0 0
HStem: 0 21G<0 512> 2028 20G<0 512>
VStem: 0 512<0 2048>
Fore
0 2048 m 1
 512 2048 l 1
 512 0 l 1
 0 0 l 1
 0 2048 l 1
EndSplineSet
EndChar
StartChar: ae
Encoding: 230 230 166
Width: 2048
VWidth: 2619
Flags: W
TeX: 0 0 0 0
HStem: 0 512<512 1024 1536 2048> 512 512<0 512 1024 1536> 1024 512<512 1024 1536 2048> 1536 512<0 512 1024 1536>
VStem: 0 512<512 1024 1536 2048> 512 512<0 512 1024 1536> 1024 512<512 1024 1536 2048> 1536 512<0 512 1024 1536>
Fore
1024 2048 m 1
 1536 2048 l 1
 1536 1536 l 1
 2048 1536 l 1
 2048 1024 l 1
 1536 1024 l 1
 1536 512 l 1
 2048 512 l 1
 2048 0 l 1
 1536 0 l 1
 1536 512 l 1
 1024 512 l 1
 1024 1024 l 1
 1536 1024 l 1
 1536 1536 l 1
 1024 1536 l 1
 1024 2048 l 1
0 2048 m 1
 512 2048 l 1
 512 1536 l 1
 1024 1536 l 1
 1024 1024 l 1
 512 1024 l 1
 512 512 l 1
 1024 512 l 1
 1024 0 l 1
 512 0 l 1
 512 512 l 1
 0 512 l 1
 0 1024 l 1
 512 1024 l 1
 512 1536 l 1
 0 1536 l 1
 0 2048 l 1
EndSplineSet
EndChar
StartChar: ccedilla
Encoding: 231 231 167
Width: 2048
VWidth: 2619
Flags: W
TeX: 0 0 0 0
HStem: 0 21G<1536 2048> 2028 20G<1536 2048>
VStem: 1536 512<0 2048>
Fore
1536 2048 m 1
 2048 2048 l 1
 2048 0 l 1
 1536 0 l 1
 1536 2048 l 1
EndSplineSet
EndChar
StartChar: egrave
Encoding: 232 232 168
Width: 2048
VWidth: 2619
Flags: W
TeX: 0 0 0 0
HStem: 0 512<512 1024 1536 2048> 512 512<0 512 1024 1536>
VStem: 0 512<512 1024> 512 512<0 512> 1024 512<512 1024> 1536 512<0 512>
Fore
1536 1024 m 1
 1536 512 l 1
 2048 512 l 1
 2048 0 l 1
 1536 0 l 1
 1536 512 l 1
 1024 512 l 1
 1024 1024 l 1
 1536 1024 l 1
512 1024 m 1
 512 512 l 1
 1024 512 l 1
 1024 0 l 1
 512 0 l 1
 512 512 l 1
 0 512 l 1
 0 1024 l 1
 512 1024 l 1
EndSplineSet
EndChar
StartChar: eacute
Encoding: 233 233 169
Width: 2048
VWidth: 2619
Flags: W
TeX: 0 0 0 0
HStem: 0 21G<0 255> 235 20G<255 512> 1259 20G<1279 1536> 1516 20G<1536 1793> 1793 255<1793 2048>
VStem: 0 255<0 255>
Fore
2048 2048 m 1
 0 2048 l 1
 0 0 l 1
 255 0 l 1
 255 255 l 1
 512 255 l 1
 512 512 l 1
 769 512 l 1
 769 769 l 1
 1024 769 l 1
 1024 1024 l 1
 1279 1024 l 1
 1279 1279 l 1
 1536 1279 l 1
 1536 1536 l 1
 1793 1536 l 1
 1793 1793 l 1
 2048 1793 l 1
 2048 2048 l 1
EndSplineSet
EndChar
StartChar: ecircumflex
Encoding: 234 234 170
Width: 2048
VWidth: 2619
Flags: W
TeX: 0 0 0 0
HStem: 0 21G<1536 2050> 2028 20G<1538 2048>
VStem: 1538 510<0 2048>
Fore
1538 2048 m 1
 2048 2048 l 1
 2050 0 l 1
 1536 0 l 1
 1538 2048 l 1
EndSplineSet
EndChar
StartChar: edieresis
Encoding: 235 235 171
Width: 2048
VWidth: 2619
Flags: W
TeX: 0 0 0 0
HStem: 0 21G<769 1279> 769 510<1279 2048> 2028 20G<769 1279>
VStem: 769 510<0 769 1279 2048>
Fore
769 1024 m 1
 769 2048 l 1
 1279 2048 l 1
 1279 1279 l 1
 2048 1279 l 1
 2048 769 l 1
 1279 769 l 1
 1279 0 l 1
 769 0 l 1
 769 1024 l 1
EndSplineSet
EndChar
StartChar: igrave
Encoding: 236 236 172
Width: 2048
VWidth: 2619
Flags: W
TeX: 0 0 0 0
HStem: 0 1024<1024 2048>
VStem: 1024 1024<0 1024>
Fore
1024 1024 m 1
 2048 1024 l 1
 2048 0 l 1
 1024 0 l 1
 1024 1024 l 1
EndSplineSet
EndChar
StartChar: iacute
Encoding: 237 237 173
Width: 2048
VWidth: 2619
Flags: W
TeX: 0 0 0 0
HStem: 769 510<1279 2048> 2028 20G<769 1279>
VStem: 769 510<1279 2048>
Fore
2048 1279 m 1
 1279 1279 l 1
 1279 2048 l 1
 769 2048 l 1
 769 769 l 1
 2048 769 l 1
 2048 1279 l 1
EndSplineSet
EndChar
StartChar: icircumflex
Encoding: 238 238 174
Width: 2048
VWidth: 2619
Flags: W
TeX: 0 0 0 0
HStem: 0 21G<769 1279> 769 510<0 769>
VStem: 769 510<0 769>
Fore
0 1279 m 1
 1279 1279 l 1
 1279 0 l 1
 769 0 l 1
 769 769 l 1
 0 769 l 1
 0 1279 l 1
EndSplineSet
EndChar
StartChar: idieresis
Encoding: 239 239 175
Width: 2048
VWidth: 2619
Flags: W
TeX: 0 0 0 0
HStem: 0 512<0 2048>
Fore
0 512 m 1
 2048 512 l 1
 2048 0 l 1
 0 0 l 1
 0 512 l 1
EndSplineSet
EndChar
StartChar: eth
Encoding: 240 240 176
Width: 2048
VWidth: 2619
Flags: W
TeX: 0 0 0 0
HStem: 0 21G<769 1279> 769 510<1279 2048>
VStem: 769 510<0 769>
Fore
2048 1279 m 1
 769 1279 l 1
 769 0 l 1
 1279 0 l 1
 1279 769 l 1
 2048 769 l 1
 2048 1279 l 1
EndSplineSet
EndChar
StartChar: ntilde
Encoding: 241 241 177
Width: 2048
VWidth: 2619
Flags: W
TeX: 0 0 0 0
HStem: 769 510<0 769 1279 2048> 2028 20G<769 1279>
VStem: 769 510<1279 2048>
Fore
0 1279 m 1
 769 1279 l 1
 769 2048 l 1
 1279 2048 l 1
 1279 1279 l 1
 2048 1279 l 1
 2048 769 l 1
 0 769 l 1
 0 1279 l 1
EndSplineSet
EndChar
StartChar: ograve
Encoding: 242 242 178
Width: 2048
VWidth: 2619
Flags: W
TeX: 0 0 0 0
HStem: 0 21G<769 1279> 769 510<0 769 1279 2048>
VStem: 769 510<0 769>
Fore
0 1279 m 1
 2048 1279 l 1
 2048 769 l 1
 1279 769 l 1
 1279 0 l 1
 769 0 l 1
 769 769 l 1
 0 769 l 1
 0 1279 l 1
EndSplineSet
EndChar
StartChar: oacute
Encoding: 243 243 179
Width: 2048
VWidth: 2619
Flags: W
TeX: 0 0 0 0
HStem: 0 21G<769 1279> 769 510<0 769> 2028 20G<769 1279>
VStem: 769 510<0 769 1279 2048>
Fore
0 1279 m 1
 769 1279 l 1
 769 2048 l 1
 1279 2048 l 1
 1279 0 l 1
 769 0 l 1
 769 769 l 1
 0 769 l 1
 0 1279 l 1
EndSplineSet
EndChar
StartChar: ocircumflex
Encoding: 244 244 180
Width: 2048
VWidth: 2619
Flags: W
TeX: 0 0 0 0
HStem: 0 21G<0 512> 2028 20G<0 512>
VStem: 0 512<0 2048>
Fore
0 2048 m 1
 512 2048 l 1
 512 0 l 1
 0 0 l 1
 0 2048 l 1
EndSplineSet
EndChar
StartChar: otilde
Encoding: 245 245 181
Width: 2048
VWidth: 2619
Flags: W
TeX: 0 0 0 0
HStem: 0 21G<0 769> 2028 20G<0 769>
VStem: 0 769<0 2048>
Fore
0 2048 m 1
 769 2048 l 1
 769 0 l 1
 0 0 l 1
 0 2048 l 1
EndSplineSet
EndChar
StartChar: odieresis
Encoding: 246 246 182
Width: 2048
VWidth: 2619
Flags: W
TeX: 0 0 0 0
HStem: 0 21G<1279 2048> 2028 20G<1279 2048>
VStem: 1279 769<0 2048>
Fore
1279 2048 m 1
 2048 2048 l 1
 2048 0 l 1
 1279 0 l 1
 1279 2048 l 1
EndSplineSet
EndChar
StartChar: divide
Encoding: 247 247 183
Width: 2048
VWidth: 2619
Flags: W
TeX: 0 0 0 0
HStem: 1536 512<0 2048>
Fore
0 1536 m 1
 2048 1536 l 1
 2048 2048 l 1
 0 2048 l 1
 0 1536 l 1
EndSplineSet
EndChar
StartChar: oslash
Encoding: 248 248 184
Width: 2048
VWidth: 2619
Flags: W
TeX: 0 0 0 0
HStem: 1279 769<0 2048>
Fore
0 1279 m 1
 2048 1279 l 1
 2048 2048 l 1
 0 2048 l 1
 0 1279 l 1
EndSplineSet
EndChar
StartChar: ugrave
Encoding: 249 249 185
Width: 2048
VWidth: 2619
Flags: W
TeX: 0 0 0 0
HStem: 0 769<0 2048>
Fore
0 769 m 1
 2048 769 l 1
 2048 0 l 1
 0 0 l 1
 0 769 l 1
EndSplineSet
EndChar
StartChar: uacute
Encoding: 250 250 186
Width: 2048
VWidth: 2619
Flags: W
TeX: 0 0 0 0
HStem: 0 512<0 1536> 2028 20G<1536 2048>
VStem: 1536 512<512 2048>
Fore
2048 2048 m 1
 1536 2048 l 1
 1536 512 l 1
 0 512 l 1
 0 0 l 1
 2048 0 l 1
 2048 2048 l 1
EndSplineSet
EndChar
StartChar: ucircumflex
Encoding: 251 251 187
Width: 2048
VWidth: 2619
Flags: W
TeX: 0 0 0 0
HStem: 0 1024<0 1024>
VStem: 0 1024<0 1024>
Fore
1024 1024 m 1
 0 1024 l 1
 0 0 l 1
 1024 0 l 1
 1024 1024 l 1
EndSplineSet
EndChar
StartChar: udieresis
Encoding: 252 252 188
Width: 2048
VWidth: 2619
Flags: W
TeX: 0 0 0 0
HStem: 1024 1024<1024 2048>
VStem: 1024 1024<1024 2048>
Fore
1024 2048 m 1
 2048 2048 l 1
 2048 1024 l 1
 1024 1024 l 1
 1024 2048 l 1
EndSplineSet
EndChar
StartChar: yacute
Encoding: 253 253 189
Width: 2048
VWidth: 2619
Flags: W
TeX: 0 0 0 0
HStem: 769 510<0 769> 2028 20G<769 1279>
VStem: 769 510<1279 2048>
Fore
0 1279 m 1
 769 1279 l 1
 769 2048 l 1
 1279 2048 l 1
 1279 769 l 1
 0 769 l 1
 0 1279 l 1
EndSplineSet
EndChar
StartChar: thorn
Encoding: 254 254 190
Width: 2048
VWidth: 2619
Flags: W
TeX: 0 0 0 0
HStem: 1024 1024<0 1024>
VStem: 0 1024<1024 2048>
Fore
0 2048 m 1
 1024 2048 l 1
 1024 1024 l 1
 0 1024 l 1
 0 2048 l 1
EndSplineSet
EndChar
StartChar: ydieresis
Encoding: 255 255 191
Width: 2048
VWidth: 2619
Flags: W
TeX: 0 0 0 0
HStem: 255 21G<512 1024 1279 1793> 769 255<255 512> 1024 255<1024 1279> 1279 257<1793 2048>
VStem: 512 512<255 769> 1279 514<255 1024>
Fore
255 1024 m 1
 512 1024 l 1
 512 1279 l 1
 1279 1279 l 1
 1279 1536 l 1
 2048 1536 l 1
 2048 1279 l 1
 1793 1279 l 1
 1793 255 l 1
 1279 255 l 1
 1279 1024 l 1
 1024 1024 l 1
 1024 255 l 1
 512 255 l 1
 512 769 l 1
 255 769 l 1
 255 1024 l 1
EndSplineSet
EndChar
